<?xml version="1.0" encoding="UTF-8"?>
<!DOCTYPE svg PUBLIC "-//W3C//DTD SVG 1.1//EN" "http://www.w3.org/Graphics/SVG/1.1/DTD/svg11.dtd">
<!-- Creator: CorelDRAW 2020 (64 Bit) -->
<svg xmlns="http://www.w3.org/2000/svg" xml:space="preserve" width="209.356mm" height="201.998mm" version="1.1" shape-rendering="geometricPrecision" text-rendering="geometricPrecision" image-rendering="optimizeQuality" fill-rule="evenodd" clip-rule="evenodd"
viewBox="0 0 9124.8 8804.11"
 xmlns:xlink="http://www.w3.org/1999/xlink"
 xmlns:xodm="http://www.corel.com/coreldraw/odm/2003">
 <g id="Camada_x0020_1">
  <metadata id="CorelCorpID_0Corel-Layer"/>
  <g id="_2887601913392">
   <path fill="#1A73E8" fill-rule="nonzero" d="M2565.78 1931.21l2111.08 -1759.84c156.87,-130.76 352.93,-185.49 542.4,-168.3 187.72,17.04 369.11,104.72 499.69,258.96 545.74,644.96 1128.74,1318.13 1701.03,1995.35 -51.69,5.94 -103.31,17.18 -154.54,33.02 -547.5,-650.39 -1098.79,-1298.43 -1638.08,-1944.79 -108.84,-130.55 -261.31,-204.75 -419.28,-219.08 -157.92,-14.32 -321.25,31.19 -451.85,140l-1905.38 1588.36 -285.06 76.32zm5637.87 1267.58c258.83,316.85 510.45,632.12 749.84,943.34 130.71,156.85 185.41,352.88 168.23,542.28 -17.2,189.46 -106.34,372.5 -263.28,503.33 -442.33,353.86 -882.69,716.48 -1321.76,1082.97l-38.1 -142.34c425.95,-347.71 853.69,-692.8 1280.67,-1035.94 130.52,-108.82 204.68,-261.28 219.01,-419.2 14.32,-157.95 -31.22,-321.34 -140.11,-451.96 -224.42,-280.52 -452.4,-560.49 -682.68,-839.95 13.65,-60.48 22.56,-121.21 28.17,-182.53z"/>
   <path fill="#1A73E8" fill-rule="nonzero" d="M6744.37 7656.14c-17.14,253.76 -34.11,507.48 -50.16,761.11 -7.2,110.49 -58.94,208 -136.5,276.07 -76.31,66.97 -177.63,105.42 -286.04,99.67l-2406.98 -156.81c-110,-7.18 -207.11,-58.49 -275.12,-135.45l183.16 -49.03c30.47,16.68 64.9,27.14 101.68,29.54l2402.12 156.52c67.92,4.42 131.47,-19.32 179.1,-61.12 47.49,-41.68 79.19,-101.37 83.63,-168.98 13.11,-235.92 27.72,-472.01 43.11,-708.17l162 -43.37z"/>
   <path fill="#1A73E8" fill-rule="nonzero" d="M1310.07 8249.82l-368.58 -1376.71c60.66,42.79 124.59,80.92 191.13,113.24l327.53 1223.36c42.11,157.32 144.83,283.15 276.36,359.13 131.43,75.93 291.71,101.97 449.07,59.85l4798.66 -1284.71c157.32,-42.12 283.15,-144.84 359.13,-276.37 75.91,-131.43 101.97,-291.72 59.85,-449.08l-394.28 -1472.7c14,-11.51 28.14,-22.93 42.59,-34.16 17.63,-13.69 31.71,-25.13 47.55,-41.2 7.03,-7.13 14.29,-15.71 21.94,-22.11 6.17,-5.16 12.32,-10.37 18.45,-15.64l413.82 1545.7c53.17,198.61 20.25,400.98 -75.63,566.97 -95.83,165.89 -254.65,295.47 -453.31,348.66l-4798.66 1284.71c-198.6,53.17 -400.98,20.25 -566.96,-75.63 -165.89,-95.83 -295.47,-254.65 -348.65,-453.3zm5122.65 -5256.27l-314.22 -1173.67c-42.12,-157.32 -144.83,-283.16 -276.36,-359.14 -131.44,-75.91 -291.72,-101.97 -449.09,-59.85l-4799.34 1284.9c-157,42.24 -282.57,144.82 -358.44,276.18 -75.93,131.43 -101.97,291.71 -59.86,449.07l2.74 10.26 259.55 969.48c-25.74,126.92 -43.92,258.6 -56.31,390.34l-358.8 -1340.19 0 -0.36c-49.21,-195.21 -15.79,-393.33 78.39,-556.37 95.83,-165.9 254.64,-295.46 453.29,-348.65l4798.67 -1284.72c198.62,-53.17 400.98,-20.24 566.97,75.63 165.89,95.83 295.47,254.66 348.65,453.32l278.27 1039.39c-19.41,28.14 -38.26,56.6 -57.06,84.67 -19.76,29.52 -38.59,59.5 -57.06,89.71z"/>
   <path fill="#1A73E8" fill-rule="nonzero" d="M2146.25 8397.85c-22.79,6.72 -44.1,13.18 -63.93,19.41 -19.83,6.22 -38.73,12.43 -56.71,18.62 -2.76,-3.16 -5.2,-6.62 -7.32,-10.39 -2.12,-3.75 -3.84,-7.84 -5.15,-12.25 12.07,-5.19 19.92,-8.25 23.57,-9.18 -2.66,-13.03 -5.31,-25.83 -7.95,-38.41 -2.63,-12.59 -5.61,-25.31 -8.93,-38.16 -2.59,-10.04 -5.38,-19.96 -8.35,-29.74 -2.96,-9.78 -6.17,-19.59 -9.58,-29.42 -2.49,0.64 -5.27,1.49 -8.35,2.54 -3.08,1.04 -6.44,2.39 -10.08,4.02 -0.5,-1.27 -0.92,-2.53 -1.23,-3.76 -0.32,-1.24 -0.65,-2.51 -0.99,-3.83 -2.43,-9.38 -3.2,-16.48 -2.32,-21.27 31.97,-8.71 57.41,-15.8 76.28,-21.25 18.88,-5.46 31.73,-9.32 38.55,-11.58 2.94,5.21 5.88,11.62 8.8,19.2 2.94,7.6 5.89,16.81 8.87,27.64 -1.86,1 -4.21,1.95 -7.07,2.86 -2.85,0.91 -6.1,1.83 -9.74,2.76 -3.32,-6.01 -6.43,-11.27 -9.37,-15.79 -2.93,-4.51 -5.78,-8.36 -8.53,-11.51 -5.46,1.4 -12.32,3.55 -20.57,6.46 -8.25,2.9 -17.72,6.51 -28.42,10.84 4.54,14.82 8.35,27.2 11.45,37.12 3.09,9.92 5.65,17.43 7.68,22.54 1.68,-7.82 4.53,-14.04 8.55,-18.66 4.01,-4.62 8.82,-7.66 14.45,-9.1 2.81,-0.72 5.65,-0.97 8.54,-0.75 2.88,0.24 5.59,0.99 8.12,2.27 2.54,1.28 4.76,3.05 6.66,5.27 1.9,2.24 3.3,5.1 4.2,8.56 1.53,5.92 1.23,11.05 -0.92,15.38 -2.14,4.32 -5.29,7.02 -9.42,8.08 -4.47,1.15 -7.88,0.75 -10.23,-1.2 -2.35,-1.94 -3.87,-4.22 -4.55,-6.86 -0.56,-2.15 -0.3,-4.05 0.77,-5.73 1.06,-1.68 2.47,-2.92 4.2,-3.71 -0.28,0.95 -0.56,1.9 -0.85,2.85 -0.28,0.95 -0.3,1.92 -0.04,2.91 0.81,3.13 2.54,4.36 5.19,3.68 1.65,-0.42 3.01,-1.47 4.08,-3.16 1.06,-1.67 1.26,-3.82 0.58,-6.46 -1.87,-7.26 -6.45,-9.94 -13.72,-8.08 -2.48,0.64 -5.2,2.6 -8.14,5.9 -2.94,3.3 -5.23,8.63 -6.86,15.99 -1.62,7.36 -2.2,17.07 -1.73,29.16 0.48,12.08 2.98,27.21 7.5,45.37 8.33,0.15 23.71,-2.12 46.13,-6.82 4.82,-10.71 6.57,-26.1 5.27,-46.14 3.4,-0.52 6.69,-0.75 9.89,-0.68 3.19,0.06 6.28,0.41 9.27,1.05 1.7,6.59 3.56,14.28 5.57,23.07 2.01,8.8 4.32,18.92 6.93,30.37zm192.53 -239.28c2.09,8.08 3.32,14.03 3.7,17.9 0.38,3.85 -1.17,6.22 -4.65,7.11 -5.79,1.49 -11.54,2.44 -17.26,2.85 0.78,17.36 0.41,40.68 -1.1,69.96 -1.52,29.28 -4.06,65.02 -7.62,107.21 -48.58,-54.83 -84.69,-102.74 -108.35,-143.76 -4.32,3.04 -9.14,5.59 -14.43,7.65 -4.89,-5.95 -8.46,-13.29 -10.72,-22.02 13.63,-6.65 31.05,-16.73 52.26,-30.25 5.55,5.08 10.02,11.49 13.44,19.22 -6.3,5.66 -12.26,10.25 -17.87,13.79 10.18,15.49 21.57,31.23 34.18,47.24 12.6,16 26.63,32.39 42.09,49.16 3.46,-45.32 4.79,-84.21 3.98,-116.68 -7.37,0.83 -14.07,0.17 -20.09,-1.97 -1.45,-5.6 -1.17,-13.06 0.84,-22.34 11.51,-0.5 21.57,-1.19 30.17,-2.07 8.6,-0.88 15.74,-1.89 21.45,-3zm240.95 128.23c-22.79,6.72 -44.1,13.18 -63.93,19.41 -19.83,6.22 -38.73,12.43 -56.72,18.62 -2.75,-3.16 -5.19,-6.61 -7.31,-10.38 -2.12,-3.76 -3.84,-7.84 -5.15,-12.25 12.06,-5.19 19.92,-8.25 23.56,-9.19 -2.66,-13.03 -5.31,-25.82 -7.95,-38.41 -2.63,-12.59 -5.61,-25.3 -8.93,-38.15 -2.6,-10.05 -5.38,-19.96 -8.35,-29.74 -2.96,-9.78 -6.17,-19.59 -9.59,-29.42 -2.48,0.64 -5.27,1.49 -8.34,2.54 -3.08,1.05 -6.44,2.4 -10.08,4.02 -0.5,-1.27 -0.92,-2.53 -1.23,-3.77 -0.32,-1.24 -0.65,-2.51 -0.99,-3.83 -2.43,-9.38 -3.2,-16.48 -2.32,-21.27 31.97,-8.71 57.4,-15.8 76.28,-21.25 18.88,-5.45 31.73,-9.32 38.55,-11.58 2.93,5.21 5.87,11.62 8.8,19.21 2.94,7.6 5.89,16.81 8.87,27.64 -1.86,1 -4.22,1.96 -7.07,2.86 -2.85,0.91 -6.1,1.83 -9.74,2.76 -3.32,-6.01 -6.44,-11.27 -9.37,-15.79 -2.93,-4.51 -5.78,-8.36 -8.53,-11.52 -5.46,1.4 -12.32,3.55 -20.56,6.46 -8.25,2.89 -17.72,6.51 -28.43,10.83 4.54,14.83 8.35,27.2 11.45,37.12 3.09,9.92 5.65,17.43 7.68,22.53 1.68,-7.81 4.53,-14.03 8.55,-18.65 4.01,-4.62 8.82,-7.66 14.45,-9.1 2.81,-0.72 5.66,-0.97 8.54,-0.75 2.88,0.23 5.59,0.99 8.13,2.27 2.54,1.29 4.76,3.05 6.66,5.27 1.9,2.24 3.3,5.09 4.2,8.56 1.53,5.92 1.23,11.05 -0.92,15.38 -2.14,4.32 -5.29,7.02 -9.43,8.08 -4.47,1.15 -7.88,0.74 -10.23,-1.2 -2.35,-1.94 -3.87,-4.22 -4.55,-6.86 -0.56,-2.14 -0.3,-4.05 0.77,-5.73 1.06,-1.67 2.47,-2.92 4.2,-3.71 -0.28,0.95 -0.56,1.9 -0.85,2.85 -0.29,0.95 -0.3,1.92 -0.04,2.91 0.81,3.13 2.54,4.36 5.19,3.68 1.65,-0.42 3.01,-1.47 4.08,-3.16 1.07,-1.68 1.26,-3.83 0.58,-6.46 -1.87,-7.26 -6.45,-9.94 -13.73,-8.08 -2.48,0.64 -5.2,2.6 -8.13,5.9 -2.94,3.3 -5.23,8.63 -6.86,15.99 -1.62,7.35 -2.2,17.07 -1.73,29.16 0.48,12.08 2.98,27.21 7.5,45.37 8.32,0.15 23.7,-2.13 46.13,-6.82 4.82,-10.71 6.57,-26.09 5.27,-46.14 3.4,-0.52 6.69,-0.75 9.88,-0.68 3.19,0.07 6.28,0.41 9.27,1.06 1.7,6.59 3.56,14.28 5.56,23.07 2.01,8.8 4.32,18.92 6.93,30.37zm203.63 -243.43c2.85,4.89 4.9,9.73 6.13,14.5 0.3,1.16 0.54,2.27 0.74,3.36 0.19,1.1 0.4,2.4 0.62,3.93 0.13,0.5 -0.78,1.25 -2.72,2.28 -1.94,1.02 -4.35,2.12 -7.22,3.3 -2.87,1.17 -5.93,2.3 -9.18,3.4 -3.25,1.09 -6.03,1.94 -8.35,2.53 10.02,33.26 18.96,62.42 26.84,87.45 7.88,25.03 14.95,46.58 21.21,64.65 -3.8,2.37 -8.14,4.54 -13.01,6.49 -4.87,1.96 -10.35,3.8 -16.44,5.54 -22.59,-25.31 -43.71,-48.66 -63.36,-70.05 -19.64,-21.41 -37.95,-41.36 -54.9,-59.84 7.24,15.01 14.58,32.36 22.05,52.05 7.47,19.7 15.23,42.38 23.28,68.07 10.06,-2.04 18.58,-2.83 25.59,-2.34 2.01,9.15 2.75,16.43 2.21,21.84 -7.08,1.28 -14.16,2.58 -21.24,3.86 -7.07,1.28 -14.34,2.88 -21.78,4.79 -0.66,0.17 -1.32,0.34 -1.98,0.51 -0.66,0.17 -1.3,0.43 -1.93,0.76l-15.63 4c-0.25,-0.29 -0.65,-1.15 -1.2,-2.59 -0.54,-1.44 -1.19,-3.07 -1.93,-4.91 -0.74,-1.83 -1.46,-3.79 -2.18,-5.89 -0.72,-2.1 -1.27,-3.89 -1.66,-5.38 -0.26,-0.99 0.42,-2.13 2.03,-3.42 1.61,-1.29 3.57,-2.58 5.88,-3.87 2.31,-1.29 4.61,-2.46 6.9,-3.49 2.3,-1.02 3.98,-1.85 5.06,-2.47 -6.9,-26.69 -13.24,-49.52 -19.03,-68.51 -5.79,-18.97 -11.37,-34.45 -16.76,-46.42 -3.23,0.48 -6.5,0.96 -9.82,1.46 -3.31,0.51 -6.54,1.15 -9.68,1.95 -2.23,-4.52 -4.07,-9.26 -5.54,-14.25 -1.46,-4.98 -2.9,-10.19 -4.31,-15.63l43.93 -11.25c7.84,6.43 47.63,46.38 119.38,119.87 -9.11,-22.96 -18.65,-53.72 -28.61,-92.27 -1.11,-4.29 -2.24,-8.7 -3.42,-13.22 -1.17,-4.52 -2.31,-9.28 -3.42,-14.27 -3.85,0.81 -7.9,1.36 -12.15,1.66 -4.24,0.3 -8.54,0.57 -12.89,0.8 -1.71,-1.84 -3.06,-4.66 -4.04,-8.45 -0.64,-2.47 -1.07,-5.17 -1.3,-8.11 12.2,-4 23.47,-7.81 33.83,-11.43 10.36,-3.63 20.35,-7.28 29.98,-10.97zm226.21 -61.9c-3.8,7.81 -6.52,14.75 -8.13,20.79 -1.62,6.03 -2.66,11.22 -3.13,15.55 -0.47,4.34 -0.49,7.82 -0.08,10.43 0.41,2.62 0.73,4.34 0.94,5.16 0.55,2.14 1.86,3.96 3.92,5.45 2.07,1.5 4.17,1.97 6.32,1.42 1.16,-0.3 2.16,-1.03 3,-2.22 0.85,-1.18 1.03,-2.67 0.57,-4.48 -0.3,-1.16 -1.18,-2.51 -2.64,-4.07 5.51,0.17 8.8,2.31 9.86,6.43 0.55,2.14 0.48,4.23 -0.24,6.25 -0.71,2.02 -1.78,3.84 -3.23,5.44 -1.44,1.6 -3.15,3 -5.13,4.21 -1.98,1.22 -3.97,2.08 -5.95,2.58 -3.81,0.98 -7.74,0.61 -11.79,-1.06 -4.06,-1.69 -6.8,-5.33 -8.26,-10.94 -2.94,-11.36 -1.9,-23.75 3.1,-37.14 -7.94,2.04 -15.25,4.12 -21.93,6.28 -6.68,2.14 -12.89,4.39 -18.64,6.74 5.37,16.01 11.4,35.72 18.07,59.13 6.67,23.41 14.09,50.93 22.26,82.56 2.2,-0.39 4.45,-0.87 6.77,-1.46 2.31,-0.59 4.72,-1.21 7.2,-1.84 2.15,-0.55 4.47,-1.15 6.95,-1.78 2.48,-0.64 5.02,-1.38 7.62,-2.22 3.4,6.32 6.12,13.44 8.17,21.36 -31.11,7.97 -60.15,18.48 -87.12,31.53 -1.15,-3.05 -2.24,-6.28 -3.3,-9.7 -1.06,-3.41 -2.11,-7.1 -3.13,-11.05 5.25,-2.22 10.28,-4.61 15.09,-7.15 4.81,-2.56 9.51,-5.2 14.09,-7.96 -7.88,-30.48 -15.29,-57.42 -22.22,-80.86 -6.94,-23.42 -13.47,-43.57 -19.6,-60.44 -7.78,1.99 -19.32,5.47 -34.62,10.45 8.18,7.74 13.11,14.9 14.82,21.49 2.55,9.89 2.42,17.07 -0.38,21.57 -2.81,4.49 -7.77,7.66 -14.88,9.48 -5.46,1.4 -10.6,1.14 -15.42,-0.79 -4.82,-1.93 -7.76,-4.95 -8.83,-9.07 -1.7,-6.59 0.1,-12.23 5.42,-16.93 -0.02,4.04 0.28,7.22 0.87,9.53 0.85,3.29 2.59,5.22 5.2,5.78 2.62,0.55 4.75,0.62 6.4,0.2 2.65,-0.68 4.7,-2.82 6.14,-6.44 1.45,-3.62 1.77,-7 0.96,-10.12 -1.28,-4.94 -4.48,-10.67 -9.6,-17.17 -5.13,-6.51 -11.99,-13.13 -20.62,-19.88 16.53,-6.33 33.38,-12.33 50.54,-17.95 17.16,-5.62 35.01,-10.81 53.54,-15.56 16.55,-4.24 33.55,-8.07 51.03,-11.49zm157.6 -40.63c9.93,-2.55 19.67,-2.58 29.22,-0.12 9.55,2.48 18.48,7.34 26.8,14.61 8.32,7.27 15.8,16.77 22.46,28.5 6.64,11.73 12.01,25.5 16.1,41.32 3.02,11.7 4.03,23.43 3.01,35.2 -1.02,11.76 -4.11,22.65 -9.29,32.67 -5.16,10.03 -12.37,18.81 -21.63,26.36 -9.25,7.54 -20.58,13.04 -33.98,16.48 -21.51,5.51 -40.32,1.86 -56.43,-10.97 -16.11,-12.82 -27.99,-34.06 -35.65,-63.71 -4.47,-17.3 -5.95,-32.74 -4.42,-46.29 1.52,-13.57 5.16,-25.39 10.94,-35.47 5.78,-10.08 13.3,-18.34 22.58,-24.76 9.28,-6.42 19.38,-11.02 30.3,-13.82zm3.41 17.29c-8.27,2.12 -14.8,6.39 -19.59,12.8 -4.79,6.39 -8.16,13.98 -10.13,22.74 -1.97,8.76 -2.7,18.22 -2.2,28.37 0.5,10.14 1.99,20 4.46,29.55 2.38,9.22 5.45,18.01 9.2,26.36 3.75,8.36 8.12,15.54 13.11,21.55 4.99,6.01 10.54,10.42 16.65,13.25 6.11,2.83 12.64,3.36 19.6,1.57 7.28,-1.87 13.3,-5.38 18.04,-10.56 4.75,-5.16 8.22,-11.54 10.4,-19.13 2.18,-7.58 3.16,-16.09 2.93,-25.51 -0.24,-9.43 -1.68,-19.32 -4.37,-29.71 -2.43,-9.39 -5.79,-18.63 -10.08,-27.72 -4.29,-9.09 -9.06,-17.13 -14.3,-24.12 -5.25,-7 -10.78,-12.35 -16.58,-16.04 -5.81,-3.69 -11.53,-4.82 -17.16,-3.39zm283.88 -62.97c1.23,-2.07 1.89,-3.95 1.98,-5.64 0.09,-1.7 -0.03,-3.19 -0.37,-4.52 -1.15,-4.45 -3.46,-6.22 -6.93,-5.33 -3.15,0.81 -5.47,3.24 -6.98,7.31 -1.5,4.08 -1.76,9.06 -0.76,14.96 0.42,1.64 1.51,4.66 3.26,9.04 1.75,4.37 4.11,10.23 7.05,17.55 -5.47,5.44 -11.79,9.34 -18.94,11.71 -5.16,-9.04 -10.23,-16 -15.19,-20.87 -4.97,-4.88 -9.49,-8.38 -13.56,-10.49 -4.08,-2.12 -7.68,-3.26 -10.81,-3.43 -3.13,-0.16 -5.53,-0.03 -7.18,0.39 -3.15,0.81 -5.81,2.1 -7.99,3.89 -2.18,1.79 -3.96,3.78 -5.33,5.98 -1.37,2.2 -2.29,4.45 -2.75,6.76 -0.46,2.31 -0.44,4.45 0.07,6.43 1.02,3.96 2.84,7.41 5.45,10.33 2.61,2.93 6.37,6.05 11.28,9.36 3.21,2.17 7.52,4.17 12.94,6.04 5.42,1.87 11.32,3.87 17.7,6.01 6.37,2.14 12.92,4.59 19.63,7.35 6.71,2.76 13.03,6.05 18.96,9.89 5.93,3.84 11.11,8.35 15.54,13.54 4.43,5.19 7.59,11.42 9.46,18.66 2.13,8.23 2.61,15.93 1.46,23.07 -1.16,7.14 -3.52,13.5 -7.11,19.07 -3.58,5.57 -8.19,10.31 -13.79,14.21 -5.61,3.9 -11.89,6.73 -18.84,8.51 -16.38,4.2 -29.69,4.58 -39.93,1.14 -10.24,-3.43 -18.61,-10.21 -25.1,-20.31 1.22,8.81 0.38,15.45 -2.54,19.87 -2.91,4.44 -6.68,7.25 -11.31,8.44 -6.29,1.61 -11.88,0.97 -16.77,-1.9 -4.89,-2.87 -8.17,-7.52 -9.83,-13.95 -1.02,-3.95 -0.87,-7.98 0.45,-12.1 1.32,-4.12 4.54,-6.83 9.67,-8.15 1,-0.26 1.94,-0.36 2.83,-0.33 0.89,0.04 1.94,-0.02 3.13,-0.14 -2.63,2.78 -4.23,5.12 -4.8,7.02 -0.56,1.9 -0.63,3.67 -0.2,5.33 0.77,2.96 1.91,5.34 3.43,7.15 1.53,1.81 3.36,2.43 5.51,1.88 2.65,-0.68 4.47,-2.85 5.46,-6.53 0.99,-3.67 0.68,-8.64 -0.95,-14.91 -0.85,-3.29 -2.07,-7.01 -3.68,-11.18 2.61,-1.55 5.26,-2.7 7.97,-3.48 2.71,-0.79 5.72,-1.6 9.03,-2.45 3.15,6.74 7.2,11.95 12.1,15.6 4.92,3.66 9.88,6.29 14.88,7.92 5,1.61 9.59,2.47 13.76,2.54 4.17,0.07 7.07,-0.1 8.73,-0.52 3.48,-0.89 6.61,-2.27 9.39,-4.12 2.79,-1.85 5.12,-4.08 7.01,-6.67 1.89,-2.59 3.18,-5.44 3.89,-8.51 0.7,-3.08 0.71,-6.28 0.03,-9.62 -0.94,-3.63 -2.36,-7.26 -4.27,-10.9 -1.92,-3.64 -4.29,-7.02 -7.13,-10.16 -2.84,-3.14 -6.12,-5.98 -9.88,-8.53 -3.75,-2.55 -7.93,-4.55 -12.54,-6.01 -7.89,-2.54 -15.63,-5.17 -23.21,-7.88 -7.58,-2.72 -14.52,-6.03 -20.83,-9.95 -6.31,-3.93 -11.81,-8.65 -16.51,-14.22 -4.7,-5.56 -8.11,-12.44 -10.24,-20.69 -1.45,-5.61 -1.65,-11.17 -0.61,-16.71 1.03,-5.54 2.96,-10.55 5.77,-15.04 2.81,-4.5 6.39,-8.4 10.74,-11.71 4.35,-3.31 9.17,-5.65 14.46,-7 4.3,-1.1 8.54,-1.96 12.7,-2.59 4.16,-0.62 8.36,-0.61 12.59,0.07 4.23,0.66 8.67,2.17 13.34,4.48 4.65,2.32 9.73,5.93 15.24,10.84 -1.75,-7.45 -1.95,-13.5 -0.59,-18.16 1.36,-4.64 3.24,-8.29 5.64,-10.93 2.41,-2.63 4.85,-4.45 7.33,-5.43 2.48,-0.99 3.97,-1.54 4.46,-1.67 5.84,-1.32 10.68,-0.5 14.54,2.47 3.85,2.96 6.33,6.59 7.44,10.87 0.94,3.63 0.82,6.95 -0.34,9.98 -1.16,3.01 -4,5.36 -8.5,7.04zm428.62 20.88c5.23,20.26 1.07,32.13 -12.5,35.6 -3.15,0.81 -6.71,1.37 -10.68,1.68 -3.98,0.33 -8.17,-0.02 -12.57,-0.99 -4.41,-0.99 -8.88,-2.78 -13.43,-5.39 -4.56,-2.61 -8.99,-6.44 -13.29,-11.48 -7.46,18.24 -15.61,32.1 -24.45,41.56 -8.85,9.47 -18.98,15.66 -30.4,18.58 -5.62,1.44 -11.59,1.88 -17.92,1.31 -6.33,-0.58 -12.37,-2.28 -18.13,-5.11 -5.76,-2.82 -10.89,-6.78 -15.37,-11.87 -4.49,-5.08 -7.7,-11.34 -9.61,-18.75 -2.51,-9.71 -3.34,-18.72 -2.49,-27.03 0.86,-8.29 2.91,-16.41 6.15,-24.36 3.24,-7.94 7.51,-16.01 12.79,-24.22 5.29,-8.2 11.11,-17.08 17.47,-26.6 -6.58,-4.99 -12.11,-10.5 -16.59,-16.57 -4.48,-6.06 -7.44,-11.88 -8.89,-17.48 -1.32,-5.12 -1.71,-10.06 -1.19,-14.85 0.52,-4.79 1.92,-9.1 4.2,-12.94 2.27,-3.83 5.33,-7.16 9.19,-9.99 3.86,-2.82 8.35,-4.9 13.48,-6.21 8.6,-2.21 15.92,-1.53 21.95,2.01 6.04,3.55 10.14,9.52 12.31,17.92 2.21,8.57 2.32,16.84 0.33,24.82 -2,7.97 -6.94,16.48 -14.84,25.53 3.99,2.48 8.46,5.78 13.41,9.87 4.93,4.09 9.91,8.49 14.91,13.18 5.01,4.69 9.91,9.49 14.71,14.4 4.8,4.92 9.06,9.44 12.77,13.59 1.34,-4.38 2.48,-9.37 3.41,-14.97 0.94,-5.59 1.64,-11.4 2.11,-17.4 0.48,-6.01 0.65,-12.03 0.5,-18.05 -0.14,-6.02 -0.62,-11.64 -1.45,-16.88l14.28 -2.08c2.29,13.63 2.92,27.14 1.86,40.5 -1.05,13.34 -3.23,26.24 -6.54,38.69 9.17,8.19 17.35,13.38 24.54,15.58 7.18,2.19 13.18,2.68 17.97,1.46 5.29,-1.36 9.28,-5.73 11.97,-13.08zm-75.55 6.7c-2.67,-3.52 -6.32,-7.91 -10.94,-13.14 -4.61,-5.22 -9.55,-10.33 -14.81,-15.3 -5.26,-4.98 -10.57,-9.51 -15.94,-13.58 -5.37,-4.06 -10.18,-6.79 -14.42,-8.16 -9.6,14.05 -15.89,27.25 -18.87,39.61 -2.98,12.36 -3.3,23.07 -0.96,32.13 3.15,12.19 7.61,20.22 13.38,24.1 5.77,3.88 11.71,5.03 17.83,3.47 3.97,-1.02 8.05,-2.63 12.25,-4.84 4.18,-2.22 8.26,-5.23 12.21,-9.06 3.95,-3.82 7.69,-8.64 11.21,-14.47 3.53,-5.81 6.54,-12.74 9.05,-20.76zm-54.87 -113.99c-0.89,-3.46 -2.68,-6.12 -5.37,-7.97 -2.68,-1.86 -5.6,-2.39 -8.74,-1.58 -2.32,0.59 -4.07,1.66 -5.26,3.2 -1.19,1.53 -1.98,3.26 -2.36,5.21 -0.38,1.94 -0.52,3.95 -0.42,6.04 0.1,2.08 0.35,3.95 0.78,5.59 1.53,5.93 4.17,11.01 7.91,15.24 3.74,4.22 7.67,7.83 11.79,10.8 2.35,-6.57 3.59,-12.9 3.69,-18.99 0.11,-6.09 -0.57,-11.93 -2.01,-17.53zm470.02 57.17c-22.79,6.72 -44.1,13.18 -63.92,19.41 -19.83,6.22 -38.73,12.43 -56.72,18.62 -2.76,-3.16 -5.2,-6.62 -7.32,-10.39 -2.12,-3.76 -3.84,-7.85 -5.15,-12.25 12.06,-5.19 19.92,-8.25 23.56,-9.19 -2.66,-13.03 -5.31,-25.82 -7.95,-38.41 -2.63,-12.59 -5.61,-25.31 -8.93,-38.16 -2.6,-10.05 -5.38,-19.96 -8.35,-29.74 -2.97,-9.78 -6.17,-19.59 -9.59,-29.42 -2.48,0.64 -5.27,1.49 -8.34,2.54 -3.08,1.05 -6.44,2.4 -10.08,4.02 -0.5,-1.27 -0.92,-2.53 -1.23,-3.77 -0.32,-1.24 -0.65,-2.51 -0.99,-3.83 -2.43,-9.38 -3.2,-16.48 -2.32,-21.27 31.97,-8.71 57.4,-15.8 76.28,-21.25 18.88,-5.45 31.73,-9.32 38.55,-11.58 2.93,5.21 5.87,11.62 8.8,19.21 2.94,7.6 5.89,16.81 8.87,27.64 -1.86,1 -4.22,1.96 -7.07,2.86 -2.85,0.91 -6.1,1.83 -9.74,2.76 -3.32,-6.01 -6.44,-11.26 -9.38,-15.79 -2.93,-4.51 -5.78,-8.36 -8.53,-11.52 -5.46,1.4 -12.32,3.55 -20.56,6.46 -8.25,2.9 -17.73,6.51 -28.43,10.84 4.54,14.83 8.36,27.2 11.45,37.12 3.09,9.92 5.65,17.43 7.68,22.54 1.69,-7.82 4.53,-14.04 8.55,-18.66 4.01,-4.62 8.83,-7.66 14.45,-9.1 2.82,-0.72 5.66,-0.97 8.54,-0.75 2.89,0.23 5.59,0.99 8.13,2.27 2.54,1.28 4.76,3.05 6.66,5.27 1.9,2.24 3.3,5.09 4.2,8.56 1.53,5.92 1.23,11.05 -0.92,15.38 -2.14,4.32 -5.29,7.02 -9.43,8.08 -4.46,1.14 -7.88,0.75 -10.23,-1.2 -2.35,-1.94 -3.87,-4.22 -4.55,-6.86 -0.56,-2.14 -0.3,-4.05 0.77,-5.73 1.07,-1.68 2.47,-2.92 4.2,-3.71 -0.28,0.95 -0.56,1.9 -0.85,2.85 -0.29,0.95 -0.3,1.92 -0.04,2.91 0.81,3.13 2.54,4.36 5.19,3.68 1.65,-0.42 3.01,-1.47 4.08,-3.16 1.07,-1.68 1.26,-3.82 0.58,-6.46 -1.87,-7.25 -6.45,-9.94 -13.73,-8.08 -2.48,0.64 -5.2,2.6 -8.13,5.9 -2.94,3.3 -5.22,8.63 -6.85,15.99 -1.63,7.35 -2.21,17.07 -1.73,29.16 0.48,12.07 2.98,27.21 7.5,45.37 8.32,0.15 23.7,-2.13 46.13,-6.82 4.82,-10.71 6.57,-26.09 5.27,-46.14 3.4,-0.52 6.69,-0.75 9.88,-0.68 3.19,0.07 6.28,0.41 9.27,1.06 1.7,6.59 3.56,14.28 5.57,23.07 2,8.8 4.31,18.92 6.92,30.37zm203.63 -243.44c2.85,4.89 4.9,9.73 6.13,14.5 0.3,1.16 0.54,2.27 0.74,3.36 0.2,1.09 0.4,2.4 0.62,3.93 0.13,0.51 -0.78,1.25 -2.72,2.28 -1.94,1.02 -4.35,2.12 -7.22,3.3 -2.87,1.17 -5.93,2.3 -9.18,3.4 -3.25,1.09 -6.03,1.93 -8.34,2.52 10.01,33.26 18.95,62.42 26.84,87.45 7.88,25.03 14.95,46.58 21.21,64.65 -3.8,2.37 -8.14,4.53 -13.01,6.48 -4.87,1.97 -10.35,3.8 -16.43,5.54 -22.6,-25.3 -43.72,-48.65 -63.37,-70.05 -19.64,-21.41 -37.95,-41.36 -54.9,-59.84 7.24,15.01 14.58,32.35 22.05,52.04 7.47,19.7 15.23,42.38 23.28,68.07 10.06,-2.04 18.59,-2.83 25.59,-2.34 2.01,9.15 2.75,16.43 2.21,21.84 -7.08,1.28 -14.16,2.57 -21.23,3.86 -7.08,1.28 -14.34,2.88 -21.79,4.78 -0.67,0.17 -1.33,0.34 -1.99,0.51 -0.66,0.17 -1.3,0.43 -1.93,0.76l-15.63 4.01c-0.25,-0.3 -0.65,-1.16 -1.2,-2.6 -0.55,-1.44 -1.19,-3.07 -1.93,-4.91 -0.74,-1.83 -1.46,-3.79 -2.18,-5.89 -0.72,-2.1 -1.27,-3.9 -1.65,-5.38 -0.25,-0.99 0.42,-2.13 2.03,-3.41 1.61,-1.29 3.57,-2.58 5.88,-3.87 2.31,-1.29 4.61,-2.46 6.91,-3.49 2.29,-1.02 3.97,-1.85 5.05,-2.47 -6.9,-26.69 -13.24,-49.52 -19.02,-68.51 -5.8,-18.97 -11.38,-34.45 -16.77,-46.42 -3.23,0.48 -6.5,0.96 -9.82,1.46 -3.31,0.5 -6.54,1.14 -9.68,1.95 -2.23,-4.52 -4.07,-9.26 -5.54,-14.25 -1.46,-4.98 -2.9,-10.19 -4.31,-15.63l43.93 -11.25c7.84,6.43 47.63,46.38 119.38,119.87 -9.1,-22.96 -18.65,-53.72 -28.61,-92.27 -1.11,-4.29 -2.24,-8.7 -3.42,-13.22 -1.17,-4.52 -2.31,-9.28 -3.42,-14.27 -3.85,0.82 -7.9,1.36 -12.15,1.66 -4.24,0.3 -8.54,0.57 -12.89,0.8 -1.71,-1.84 -3.06,-4.66 -4.04,-8.45 -0.64,-2.47 -1.07,-5.17 -1.3,-8.11 12.2,-4 23.47,-7.81 33.83,-11.43 10.36,-3.63 20.35,-7.28 29.98,-10.97z"/>
   <path fill="#1A73E8" fill-rule="nonzero" d="M4652.52 7560.6c-3.8,7.81 -6.51,14.74 -8.13,20.79 -1.62,6.03 -2.66,11.22 -3.13,15.55 -0.46,4.34 -0.49,7.82 -0.08,10.43 0.41,2.62 0.73,4.34 0.94,5.16 0.55,2.14 1.86,3.96 3.92,5.45 2.07,1.5 4.18,1.97 6.32,1.42 1.16,-0.3 2.16,-1.03 3,-2.22 0.84,-1.18 1.02,-2.67 0.56,-4.48 -0.3,-1.15 -1.18,-2.51 -2.64,-4.07 5.51,0.17 8.8,2.31 9.86,6.43 0.55,2.14 0.48,4.23 -0.23,6.25 -0.71,2.02 -1.79,3.84 -3.23,5.44 -1.43,1.6 -3.14,3 -5.13,4.21 -1.98,1.21 -3.97,2.07 -5.95,2.58 -3.8,0.98 -7.74,0.61 -11.79,-1.06 -4.06,-1.69 -6.8,-5.34 -8.26,-10.94 -2.94,-11.36 -1.9,-23.75 3.1,-37.14 -7.94,2.04 -15.25,4.12 -21.93,6.28 -6.68,2.14 -12.89,4.39 -18.64,6.74 5.38,16.01 11.4,35.72 18.07,59.13 6.67,23.41 14.09,50.93 22.27,82.56 2.19,-0.39 4.45,-0.87 6.76,-1.46 2.32,-0.59 4.72,-1.21 7.2,-1.84 2.15,-0.55 4.47,-1.15 6.95,-1.78 2.48,-0.63 5.02,-1.38 7.62,-2.22 3.4,6.32 6.13,13.44 8.17,21.36 -31.11,7.97 -60.15,18.48 -87.12,31.53 -1.14,-3.05 -2.24,-6.28 -3.3,-9.7 -1.06,-3.41 -2.11,-7.1 -3.13,-11.05 5.25,-2.22 10.28,-4.61 15.09,-7.15 4.81,-2.56 9.51,-5.2 14.09,-7.96 -7.88,-30.48 -15.29,-57.42 -22.22,-80.86 -6.94,-23.42 -13.47,-43.57 -19.6,-60.44 -7.78,1.99 -19.32,5.47 -34.61,10.45 8.17,7.74 13.11,14.9 14.81,21.49 2.55,9.89 2.42,17.07 -0.38,21.57 -2.81,4.49 -7.77,7.66 -14.88,9.48 -5.46,1.4 -10.6,1.13 -15.42,-0.8 -4.82,-1.93 -7.76,-4.95 -8.83,-9.07 -1.7,-6.59 0.1,-12.23 5.41,-16.93 -0.01,4.04 0.28,7.22 0.88,9.53 0.85,3.29 2.58,5.22 5.2,5.78 2.61,0.56 4.75,0.62 6.4,0.2 2.65,-0.68 4.7,-2.82 6.14,-6.44 1.45,-3.62 1.77,-7 0.96,-10.12 -1.28,-4.95 -4.48,-10.67 -9.6,-17.17 -5.13,-6.51 -11.99,-13.13 -20.62,-19.88 16.54,-6.34 33.38,-12.33 50.54,-17.95 17.16,-5.62 35.01,-10.81 53.54,-15.56 16.55,-4.24 33.55,-8.07 51.03,-11.49zm252.48 79.7c2.98,-0.77 5.62,-0.78 7.92,-0.06 2.31,0.72 4.29,1.94 5.97,3.62 1.66,1.67 3.04,3.74 4.11,6.18 1.07,2.45 1.95,4.99 2.63,7.63 0.98,3.78 0.98,7.39 0.01,10.8 -0.97,3.4 -2.62,6.59 -4.93,9.56 -2.32,2.96 -5.23,5.51 -8.75,7.64 -3.5,2.13 -7.33,3.72 -11.46,4.78 -6.95,1.78 -12.93,2.04 -17.93,0.77 -5,-1.26 -9.37,-3.49 -13.1,-6.66 -3.73,-3.17 -7.07,-7.03 -9.99,-11.54 -2.94,-4.52 -5.74,-9.24 -8.43,-14.18 -2.68,-4.94 -5.39,-9.77 -8.12,-14.51 -2.72,-4.74 -5.86,-8.87 -9.41,-12.35 -3.54,-3.48 -7.64,-6.03 -12.3,-7.65 -4.65,-1.62 -10.18,-1.86 -16.6,-0.75 -0.07,0.38 0.25,1.97 0.97,4.76 1.15,4.45 3.25,11.69 6.27,21.71 3.03,10.03 7.05,22.66 12.05,37.88 4.93,-0.73 9.33,-1.26 13.23,-1.54 3.9,-0.3 7.41,-0.5 10.56,-0.6 0.97,1.68 2.02,4.22 3.16,7.63 1.14,3.4 2.1,6.57 2.86,9.54 -14.06,3.6 -27.48,7.17 -40.24,10.7 -12.76,3.53 -24.85,7.12 -36.26,10.74 -3.4,-6.33 -5.71,-11.89 -6.94,-16.66 4.04,-2.09 8.06,-4.09 12.08,-5.99 4,-1.91 7.87,-3.52 11.58,-4.82 -9.18,-34.18 -17.03,-62.51 -23.55,-84.99 -6.52,-22.48 -11.83,-39.62 -15.93,-51.39 -4.56,0.12 -8.91,0.7 -13.05,1.76 -1.98,0.51 -4.03,1.12 -6.14,1.84 -2.11,0.71 -4.1,1.58 -5.95,2.57 -1.39,-4.03 -2.63,-7.79 -3.71,-11.3 -1.08,-3.49 -2.02,-6.81 -2.83,-9.94 15.26,-4.44 27.08,-8.04 35.45,-10.79 8.37,-2.75 14.81,-4.98 19.31,-6.66 4.51,-1.69 7.96,-3.01 10.36,-3.97 2.4,-0.96 5.25,-1.88 8.56,-2.73 16.54,-4.24 30.28,-3.62 41.23,1.83 10.94,5.45 18.25,15.34 21.96,29.69 1.36,5.27 1.85,10.54 1.45,15.83 -0.4,5.28 -1.78,10.33 -4.16,15.15 -2.37,4.82 -5.78,9.34 -10.25,13.57 -4.47,4.21 -10.11,7.81 -16.93,10.79 3.44,-0.35 6.91,-0.06 10.42,0.88 3.51,0.95 6.87,2.33 10.07,4.15 3.2,1.81 6.14,3.96 8.81,6.44 2.67,2.48 4.98,5.13 6.95,7.97 2.14,3.49 4.12,8.07 5.94,13.76 1.82,5.67 4.02,11.13 6.61,16.35 2.58,5.22 5.84,9.44 9.75,12.66 3.92,3.21 9.02,4 15.3,2.39 4.14,-1.06 7.14,-2.92 9.01,-5.6 1.87,-2.68 2.24,-6.16 1.14,-10.44 -0.64,-2.47 -1.75,-4.21 -3.33,-5.2 -1.58,-1 -3.36,-1.25 -5.35,-0.74 -3.64,0.93 -5.2,3.78 -4.66,8.58 -1.7,-1.15 -2.86,-2.22 -3.47,-3.2 -0.61,-0.99 -1.09,-2.14 -1.43,-3.45 -0.68,-2.64 -0.23,-5.13 1.37,-7.47 1.6,-2.34 4.31,-4 8.12,-4.97zm-83.64 -95.29c-3.11,-5.88 -9.79,-7.51 -20.05,-4.88 -10.26,2.63 -16.7,6.38 -19.32,11.27 2.09,8.08 4.74,16.98 7.96,26.69 3.21,9.71 6.97,20.17 11.28,31.36 1.03,-0.1 1.97,-0.24 2.79,-0.45 0.83,-0.21 1.73,-0.44 2.73,-0.7 5.63,-1.44 10.18,-3.8 13.66,-7.06 3.48,-3.26 6.05,-7 7.69,-11.2 1.65,-4.19 2.48,-8.63 2.52,-13.28 0.03,-4.66 -0.53,-9.22 -1.68,-13.67 -1.45,-5.6 -3.97,-11.63 -7.58,-18.07zm305.26 89.36c-22.79,6.72 -44.1,13.18 -63.92,19.41 -19.83,6.22 -38.73,12.43 -56.72,18.62 -2.76,-3.16 -5.2,-6.62 -7.32,-10.38 -2.11,-3.76 -3.83,-7.85 -5.15,-12.25 12.07,-5.19 19.92,-8.26 23.57,-9.19 -2.66,-13.03 -5.31,-25.83 -7.95,-38.41 -2.64,-12.59 -5.61,-25.3 -8.94,-38.16 -2.59,-10.04 -5.37,-19.96 -8.35,-29.73 -2.97,-9.78 -6.16,-19.59 -9.59,-29.42 -2.48,0.63 -5.26,1.49 -8.34,2.54 -3.09,1.05 -6.44,2.4 -10.08,4.02 -0.5,-1.27 -0.92,-2.53 -1.24,-3.77 -0.32,-1.24 -0.65,-2.51 -0.99,-3.83 -2.42,-9.38 -3.2,-16.48 -2.32,-21.27 31.97,-8.72 57.4,-15.8 76.28,-21.25 18.88,-5.45 31.73,-9.32 38.56,-11.58 2.93,5.21 5.87,11.62 8.8,19.21 2.94,7.6 5.89,16.81 8.87,27.64 -1.86,1 -4.21,1.96 -7.07,2.86 -2.85,0.91 -6.09,1.83 -9.73,2.76 -3.32,-6.01 -6.44,-11.27 -9.38,-15.79 -2.93,-4.51 -5.78,-8.35 -8.53,-11.51 -5.46,1.4 -12.32,3.55 -20.56,6.46 -8.26,2.9 -17.73,6.51 -28.43,10.84 4.54,14.83 8.36,27.2 11.45,37.12 3.09,9.92 5.65,17.43 7.67,22.54 1.69,-7.81 4.53,-14.03 8.55,-18.65 4.01,-4.62 8.83,-7.66 14.45,-9.1 2.81,-0.72 5.66,-0.97 8.54,-0.75 2.89,0.23 5.59,0.99 8.13,2.27 2.53,1.28 4.75,3.05 6.65,5.27 1.9,2.24 3.3,5.09 4.19,8.56 1.53,5.92 1.23,11.05 -0.92,15.38 -2.14,4.32 -5.28,7.02 -9.42,8.08 -4.47,1.14 -7.88,0.74 -10.23,-1.2 -2.35,-1.94 -3.87,-4.23 -4.55,-6.86 -0.55,-2.14 -0.29,-4.05 0.77,-5.73 1.07,-1.68 2.46,-2.92 4.2,-3.71 -0.28,0.95 -0.57,1.9 -0.85,2.85 -0.28,0.95 -0.3,1.92 -0.04,2.91 0.81,3.13 2.54,4.35 5.19,3.68 1.66,-0.43 3.02,-1.48 4.08,-3.16 1.07,-1.67 1.26,-3.82 0.58,-6.46 -1.87,-7.26 -6.45,-9.94 -13.73,-8.08 -2.48,0.64 -5.2,2.6 -8.14,5.9 -2.94,3.3 -5.22,8.63 -6.85,15.99 -1.63,7.36 -2.21,17.07 -1.73,29.16 0.48,12.08 2.98,27.21 7.49,45.37 8.33,0.15 23.71,-2.13 46.13,-6.82 4.82,-10.71 6.58,-26.1 5.28,-46.14 3.4,-0.52 6.69,-0.75 9.88,-0.68 3.19,0.06 6.28,0.41 9.27,1.05 1.7,6.59 3.56,14.28 5.57,23.07 2.01,8.8 4.31,18.92 6.92,30.37zm192.5 -244.53c-3.8,7.81 -6.51,14.75 -8.12,20.79 -1.62,6.03 -2.66,11.22 -3.13,15.56 -0.46,4.33 -0.49,7.81 -0.08,10.42 0.41,2.62 0.72,4.34 0.94,5.16 0.55,2.14 1.86,3.96 3.92,5.45 2.07,1.5 4.18,1.97 6.32,1.41 1.16,-0.29 2.16,-1.03 3,-2.22 0.84,-1.18 1.03,-2.67 0.56,-4.48 -0.3,-1.16 -1.18,-2.51 -2.64,-4.07 5.51,0.17 8.8,2.31 9.86,6.43 0.55,2.14 0.48,4.23 -0.23,6.25 -0.71,2.02 -1.79,3.84 -3.23,5.44 -1.43,1.6 -3.14,3 -5.13,4.21 -1.98,1.22 -3.97,2.07 -5.95,2.58 -3.8,0.98 -7.74,0.61 -11.79,-1.06 -4.06,-1.69 -6.81,-5.34 -8.26,-10.94 -2.94,-11.36 -1.9,-23.75 3.1,-37.14 -7.94,2.04 -15.25,4.12 -21.93,6.28 -6.68,2.14 -12.89,4.39 -18.64,6.74 5.37,16.01 11.4,35.72 18.07,59.13 6.67,23.41 14.09,50.93 22.27,82.56 2.19,-0.39 4.45,-0.87 6.76,-1.46 2.32,-0.59 4.72,-1.21 7.2,-1.84 2.15,-0.55 4.47,-1.15 6.95,-1.78 2.48,-0.64 5.03,-1.39 7.63,-2.22 3.4,6.32 6.13,13.44 8.17,21.36 -31.11,7.97 -60.15,18.48 -87.12,31.53 -1.15,-3.05 -2.24,-6.28 -3.3,-9.7 -1.06,-3.41 -2.11,-7.1 -3.13,-11.05 5.25,-2.22 10.29,-4.61 15.09,-7.15 4.81,-2.56 9.51,-5.2 14.09,-7.96 -7.88,-30.48 -15.28,-57.42 -22.22,-80.85 -6.94,-23.42 -13.47,-43.57 -19.6,-60.45 -7.78,1.99 -19.32,5.47 -34.62,10.45 8.17,7.74 13.11,14.9 14.81,21.49 2.56,9.89 2.43,17.07 -0.37,21.57 -2.81,4.49 -7.77,7.66 -14.88,9.48 -5.46,1.4 -10.6,1.13 -15.42,-0.8 -4.82,-1.93 -7.76,-4.95 -8.83,-9.07 -1.7,-6.59 0.1,-12.23 5.41,-16.93 -0.02,4.05 0.27,7.22 0.87,9.53 0.85,3.29 2.59,5.22 5.2,5.78 2.61,0.55 4.75,0.62 6.4,0.2 2.65,-0.68 4.7,-2.82 6.14,-6.44 1.45,-3.62 1.77,-7 0.95,-10.12 -1.28,-4.95 -4.47,-10.67 -9.59,-17.17 -5.13,-6.51 -12,-13.13 -20.62,-19.88 16.54,-6.33 33.38,-12.33 50.54,-17.95 17.16,-5.62 35.01,-10.81 53.54,-15.56 16.55,-4.24 33.55,-8.07 51.02,-11.49zm240.98 133.49c-22.79,6.72 -44.1,13.18 -63.92,19.41 -19.83,6.22 -38.73,12.43 -56.72,18.62 -2.76,-3.16 -5.2,-6.62 -7.32,-10.38 -2.12,-3.76 -3.83,-7.85 -5.15,-12.25 12.07,-5.19 19.92,-8.26 23.56,-9.19 -2.66,-13.03 -5.31,-25.83 -7.94,-38.41 -2.64,-12.59 -5.62,-25.31 -8.94,-38.16 -2.6,-10.04 -5.38,-19.96 -8.35,-29.74 -2.97,-9.78 -6.16,-19.59 -9.59,-29.42 -2.48,0.64 -5.26,1.49 -8.34,2.54 -3.09,1.05 -6.44,2.4 -10.08,4.03 -0.5,-1.27 -0.92,-2.53 -1.23,-3.77 -0.32,-1.24 -0.65,-2.51 -0.99,-3.83 -2.43,-9.38 -3.2,-16.48 -2.32,-21.27 31.98,-8.71 57.4,-15.8 76.28,-21.25 18.88,-5.46 31.73,-9.32 38.56,-11.59 2.94,5.21 5.87,11.62 8.8,19.21 2.94,7.61 5.9,16.81 8.87,27.64 -1.86,1 -4.22,1.95 -7.07,2.86 -2.85,0.91 -6.09,1.83 -9.74,2.76 -3.32,-6.01 -6.44,-11.26 -9.37,-15.79 -2.93,-4.51 -5.78,-8.36 -8.53,-11.51 -5.46,1.4 -12.32,3.55 -20.56,6.46 -8.25,2.9 -17.73,6.51 -28.43,10.84 4.54,14.82 8.36,27.2 11.45,37.12 3.09,9.92 5.64,17.43 7.67,22.54 1.69,-7.82 4.53,-14.04 8.55,-18.66 4.01,-4.62 8.83,-7.66 14.45,-9.1 2.82,-0.72 5.66,-0.97 8.54,-0.75 2.88,0.23 5.59,0.99 8.13,2.27 2.54,1.28 4.76,3.05 6.66,5.27 1.9,2.24 3.3,5.1 4.19,8.56 1.53,5.92 1.23,11.05 -0.92,15.38 -2.14,4.32 -5.29,7.02 -9.43,8.08 -4.46,1.14 -7.88,0.74 -10.23,-1.2 -2.35,-1.94 -3.87,-4.22 -4.55,-6.86 -0.56,-2.15 -0.29,-4.05 0.77,-5.74 1.07,-1.67 2.46,-2.91 4.2,-3.71 -0.28,0.95 -0.56,1.9 -0.85,2.85 -0.29,0.95 -0.3,1.92 -0.04,2.91 0.81,3.13 2.54,4.35 5.19,3.67 1.66,-0.42 3.02,-1.47 4.08,-3.16 1.06,-1.68 1.26,-3.82 0.58,-6.46 -1.88,-7.25 -6.45,-9.94 -13.73,-8.08 -2.48,0.64 -5.2,2.6 -8.14,5.9 -2.94,3.3 -5.22,8.63 -6.85,15.99 -1.63,7.36 -2.21,17.07 -1.73,29.16 0.48,12.08 2.98,27.21 7.49,45.37 8.33,0.15 23.71,-2.13 46.13,-6.82 4.82,-10.71 6.57,-26.1 5.27,-46.14 3.4,-0.52 6.69,-0.75 9.89,-0.68 3.19,0.06 6.28,0.41 9.27,1.05 1.7,6.59 3.56,14.28 5.57,23.07 2.01,8.8 4.31,18.92 6.92,30.37zm203.63 -243.44c2.85,4.89 4.89,9.73 6.12,14.5 0.3,1.16 0.54,2.27 0.74,3.36 0.2,1.1 0.4,2.4 0.62,3.93 0.13,0.51 -0.78,1.26 -2.72,2.28 -1.94,1.03 -4.35,2.12 -7.22,3.3 -2.87,1.17 -5.93,2.31 -9.17,3.4 -3.25,1.09 -6.03,1.94 -8.34,2.53 10.01,33.26 18.96,62.41 26.84,87.45 7.88,25.03 14.95,46.58 21.21,64.65 -3.8,2.37 -8.14,4.53 -13.01,6.48 -4.88,1.97 -10.36,3.8 -16.44,5.54 -22.6,-25.3 -43.72,-48.66 -63.36,-70.05 -19.65,-21.4 -37.95,-41.36 -54.9,-59.84 7.24,15.01 14.58,32.35 22.05,52.04 7.47,19.7 15.23,42.38 23.28,68.08 10.06,-2.05 18.59,-2.84 25.6,-2.35 2.01,9.15 2.75,16.43 2.2,21.84 -7.08,1.28 -14.15,2.57 -21.23,3.86 -7.08,1.29 -14.34,2.88 -21.79,4.79 -0.66,0.17 -1.33,0.34 -1.99,0.51 -0.66,0.17 -1.3,0.43 -1.92,0.76l-15.64 4.01c-0.25,-0.29 -0.65,-1.16 -1.19,-2.59 -0.55,-1.44 -1.19,-3.08 -1.94,-4.91 -0.73,-1.83 -1.46,-3.79 -2.18,-5.89 -0.72,-2.1 -1.27,-3.9 -1.66,-5.38 -0.25,-0.99 0.42,-2.13 2.03,-3.41 1.61,-1.29 3.57,-2.58 5.88,-3.87 2.31,-1.29 4.62,-2.46 6.91,-3.5 2.29,-1.02 3.97,-1.84 5.05,-2.47 -6.9,-26.69 -13.25,-49.52 -19.03,-68.51 -5.79,-18.97 -11.38,-34.45 -16.77,-46.42 -3.23,0.48 -6.49,0.96 -9.81,1.46 -3.32,0.5 -6.55,1.15 -9.69,1.95 -2.22,-4.52 -4.07,-9.27 -5.54,-14.25 -1.46,-4.98 -2.9,-10.2 -4.3,-15.63l43.93 -11.25c7.83,6.43 47.63,46.38 119.37,119.87 -9.11,-22.96 -18.65,-53.72 -28.61,-92.27 -1.11,-4.29 -2.25,-8.7 -3.42,-13.22 -1.17,-4.52 -2.31,-9.28 -3.43,-14.27 -3.85,0.82 -7.9,1.36 -12.14,1.66 -4.25,0.3 -8.54,0.57 -12.89,0.81 -1.71,-1.85 -3.06,-4.66 -4.04,-8.45 -0.64,-2.47 -1.07,-5.17 -1.3,-8.11 12.2,-4 23.47,-7.8 33.83,-11.43 10.36,-3.63 20.35,-7.28 29.98,-10.97zm164.83 -38.27c1.75,2 4.34,7.58 7.76,16.71 -5.21,1.69 -10.13,3.47 -14.75,5.37 -4.63,1.88 -8.78,3.91 -12.46,6.08 0.43,2.34 1.06,6.83 1.9,13.48 0.83,6.63 1.79,14.43 2.87,23.37 1.08,8.95 2.21,18.49 3.43,28.63 1.21,10.14 2.3,19.82 3.27,29.06 0.98,9.23 1.83,17.5 2.57,24.76 0.73,7.28 1.16,12.49 1.26,15.63 3.74,0.79 7.92,1.48 12.57,2.04 4.64,0.57 9.81,0.92 15.48,1.04 0.8,7.17 -0.09,14.68 -2.64,22.54 -12.38,1.25 -24.31,3.03 -35.8,5.36 -11.48,2.32 -23.09,4.73 -34.79,7.2 -1.1,-2.88 -2.15,-6.08 -3.15,-9.6 -0.99,-3.52 -2.11,-7.32 -3.35,-11.4 3.48,-0.89 7.17,-1.96 11.07,-3.23 3.91,-1.27 8.02,-2.8 12.31,-4.61 -0.29,-12.74 -0.88,-24.76 -1.77,-36.04 -0.89,-11.27 -2.02,-22.48 -3.4,-33.64 -1.39,-11.15 -3.06,-22.41 -5.02,-33.75 -1.97,-11.36 -4.18,-23.48 -6.62,-36.37 -4.07,-0.72 -8.17,-1.25 -12.32,-1.58 -4.14,-0.35 -8.32,-0.42 -12.5,-0.24 -0.38,-8.32 0.21,-14.89 1.79,-19.69 9.78,-1.09 20.6,-2.55 32.48,-4.37 11.88,-1.81 25.14,-4.08 39.8,-6.77zm301.1 107.03c-4.29,3.9 -21.2,11.84 -50.75,23.8 -2.13,-2.09 -4.49,-8.16 -7.09,-18.21 3.56,-1.96 6.49,-3.94 8.8,-5.93 2.3,-2 4.34,-4.01 6.11,-6.05 -4,-15.49 -8.53,-32.16 -13.59,-50.01 -5.06,-17.85 -10.6,-37.43 -16.63,-58.71 -3.74,16.95 -6.93,36.68 -9.57,59.23 -2.64,22.54 -4.67,48.5 -6.08,77.83 -34.84,-46.05 -63.19,-79.97 -85.06,-101.78 5.45,21.09 10.54,39.59 15.27,55.51 4.73,15.91 9.23,29.38 13.49,40.4 2.24,0.48 4.5,0.55 6.8,0.24 2.3,-0.33 4.83,-0.58 7.61,-0.77 1.13,2.34 2.19,5.23 3.16,8.68 0.98,3.43 2.28,7.58 3.88,12.43 -18.18,6.77 -36.88,12.6 -56.08,17.52 -2.01,-3.69 -3.78,-7.28 -5.3,-10.76 -1.51,-3.47 -2.72,-6.93 -3.62,-10.4 -0.29,-0.44 0.6,-1.28 2.66,-2.52 2.07,-1.23 4.4,-2.44 7,-3.63 2.61,-1.2 5.06,-2.26 7.38,-3.2 2.31,-0.95 3.47,-1.42 3.47,-1.42 -1.88,-7.95 -3.8,-15.72 -5.76,-23.29 -1.96,-7.58 -3.9,-15.08 -5.81,-22.49 -3.87,-14.99 -7.7,-29.43 -11.46,-43.31 -3.77,-13.88 -7.62,-27.42 -11.56,-40.63 -7.24,2.02 -13.66,4.46 -19.28,7.3 -1.3,-2.99 -2.4,-5.88 -3.3,-8.64 -0.88,-2.75 -1.61,-5.2 -2.16,-7.35 -0.64,-2.47 0.32,-5.08 2.86,-7.85 2.55,-2.77 5.88,-5.41 9.99,-7.96 4.11,-2.55 8.65,-4.94 13.62,-7.19 4.98,-2.24 9.54,-4.23 13.66,-6 15.07,15.29 29.66,31.45 43.76,48.47 14.1,17.02 28.43,35.26 42.99,54.72 3.7,-28.71 7.1,-53.41 10.21,-74.15 3.11,-20.73 6.03,-38.12 8.75,-52.17 6.17,-1.41 12.06,-2.47 17.7,-3.22 5.63,-0.74 11.07,-1.17 16.34,-1.29 0.65,2.48 1.31,5.41 2.02,8.84 0.71,3.42 1.2,7.38 1.48,11.87 -4.46,1.14 -8.35,2.49 -11.65,4.04 -3.3,1.55 -6.42,3.84 -9.34,6.87 9.02,34.21 16.65,61.82 22.86,82.79 6.22,20.98 11.32,35.79 15.32,44.44l18.84 -7.99c2.14,3.5 3.78,7.11 4.92,10.86 1.15,3.75 2.19,7.43 3.13,11.06zm195.9 -47.03c-22.79,6.72 -44.09,13.18 -63.92,19.41 -19.83,6.22 -38.73,12.43 -56.72,18.62 -2.75,-3.16 -5.19,-6.62 -7.31,-10.39 -2.12,-3.75 -3.84,-7.84 -5.15,-12.25 12.07,-5.19 19.92,-8.25 23.56,-9.18 -2.66,-13.03 -5.31,-25.83 -7.94,-38.41 -2.64,-12.59 -5.62,-25.31 -8.94,-38.16 -2.6,-10.04 -5.38,-19.96 -8.35,-29.74 -2.97,-9.78 -6.17,-19.59 -9.59,-29.42 -2.48,0.64 -5.26,1.49 -8.34,2.54 -3.09,1.05 -6.44,2.4 -10.08,4.02 -0.51,-1.26 -0.92,-2.53 -1.24,-3.76 -0.32,-1.24 -0.65,-2.51 -0.99,-3.83 -2.42,-9.38 -3.19,-16.48 -2.32,-21.27 31.97,-8.71 57.4,-15.8 76.28,-21.25 18.88,-5.46 31.73,-9.32 38.56,-11.59 2.94,5.21 5.87,11.62 8.8,19.21 2.93,7.6 5.89,16.81 8.86,27.64 -1.85,1 -4.21,1.95 -7.06,2.86 -2.85,0.91 -6.1,1.83 -9.74,2.76 -3.32,-6.01 -6.44,-11.26 -9.37,-15.79 -2.93,-4.51 -5.78,-8.36 -8.54,-11.51 -5.46,1.4 -12.32,3.55 -20.56,6.46 -8.25,2.9 -17.72,6.51 -28.43,10.84 4.54,14.82 8.36,27.2 11.45,37.12 3.09,9.92 5.64,17.43 7.68,22.53 1.68,-7.81 4.53,-14.03 8.54,-18.65 4.01,-4.62 8.83,-7.66 14.45,-9.1 2.81,-0.72 5.66,-0.97 8.55,-0.75 2.88,0.23 5.58,0.99 8.12,2.27 2.54,1.29 4.76,3.05 6.66,5.27 1.9,2.24 3.3,5.09 4.2,8.56 1.53,5.92 1.22,11.05 -0.93,15.38 -2.14,4.32 -5.28,7.02 -9.42,8.08 -4.46,1.15 -7.87,0.75 -10.23,-1.2 -2.36,-1.94 -3.88,-4.22 -4.56,-6.86 -0.55,-2.15 -0.29,-4.05 0.78,-5.74 1.06,-1.67 2.47,-2.92 4.2,-3.71 -0.28,0.95 -0.57,1.9 -0.85,2.85 -0.28,0.95 -0.29,1.92 -0.04,2.9 0.81,3.13 2.54,4.36 5.19,3.68 1.65,-0.42 3.01,-1.47 4.08,-3.16 1.07,-1.68 1.26,-3.82 0.58,-6.46 -1.87,-7.25 -6.45,-9.94 -13.73,-8.08 -2.48,0.64 -5.2,2.6 -8.14,5.9 -2.94,3.3 -5.22,8.63 -6.85,15.99 -1.63,7.36 -2.21,17.07 -1.73,29.16 0.48,12.08 2.98,27.21 7.49,45.37 8.34,0.15 23.71,-2.13 46.14,-6.82 4.82,-10.71 6.58,-26.1 5.27,-46.14 3.4,-0.52 6.69,-0.75 9.88,-0.68 3.19,0.06 6.28,0.41 9.27,1.05 1.7,6.59 3.56,14.28 5.56,23.07 2.01,8.8 4.32,18.92 6.92,30.37zm203.64 -243.44c2.85,4.89 4.89,9.73 6.12,14.5 0.3,1.16 0.54,2.27 0.74,3.36 0.19,1.1 0.4,2.4 0.62,3.93 0.13,0.5 -0.78,1.25 -2.72,2.28 -1.94,1.03 -4.35,2.12 -7.21,3.3 -2.88,1.17 -5.94,2.31 -9.18,3.4 -3.24,1.09 -6.03,1.93 -8.34,2.52 10.01,33.27 18.96,62.42 26.84,87.45 7.88,25.03 14.95,46.58 21.21,64.65 -3.8,2.37 -8.13,4.53 -13.01,6.48 -4.88,1.97 -10.36,3.8 -16.44,5.54 -22.59,-25.31 -43.72,-48.66 -63.36,-70.05 -19.64,-21.41 -37.95,-41.36 -54.9,-59.84 7.23,15.01 14.57,32.36 22.05,52.05 7.47,19.7 15.23,42.38 23.28,68.08 10.06,-2.05 18.59,-2.84 25.59,-2.35 2.01,9.15 2.75,16.43 2.21,21.84 -7.08,1.28 -14.15,2.57 -21.23,3.86 -7.08,1.29 -14.34,2.88 -21.79,4.79 -0.66,0.17 -1.32,0.34 -1.99,0.51 -0.66,0.17 -1.3,0.43 -1.92,0.76l-15.64 4.01c-0.25,-0.29 -0.65,-1.16 -1.19,-2.6 -0.55,-1.44 -1.19,-3.07 -1.93,-4.91 -0.74,-1.82 -1.46,-3.79 -2.19,-5.88 -0.71,-2.1 -1.27,-3.9 -1.65,-5.38 -0.26,-0.99 0.42,-2.13 2.03,-3.41 1.61,-1.29 3.57,-2.58 5.88,-3.87 2.31,-1.29 4.62,-2.46 6.9,-3.49 2.3,-1.02 3.98,-1.85 5.05,-2.47 -6.9,-26.69 -13.24,-49.52 -19.03,-68.51 -5.78,-18.97 -11.38,-34.45 -16.76,-46.42 -3.23,0.48 -6.5,0.96 -9.81,1.46 -3.32,0.5 -6.55,1.15 -9.69,1.95 -2.23,-4.52 -4.07,-9.26 -5.54,-14.25 -1.47,-4.98 -2.9,-10.2 -4.3,-15.63l43.93 -11.25c7.84,6.43 47.63,46.38 119.38,119.87 -9.11,-22.96 -18.65,-53.72 -28.61,-92.27 -1.11,-4.29 -2.25,-8.7 -3.42,-13.22 -1.17,-4.52 -2.31,-9.28 -3.43,-14.27 -3.84,0.81 -7.89,1.36 -12.14,1.66 -4.25,0.3 -8.55,0.57 -12.89,0.81 -1.71,-1.85 -3.06,-4.66 -4.04,-8.45 -0.64,-2.47 -1.07,-5.17 -1.3,-8.11 12.2,-4 23.47,-7.8 33.83,-11.43 10.36,-3.63 20.35,-7.28 29.98,-10.97z"/>
   <path fill="#1A73E8" fill-rule="nonzero" d="M6855.38 6996.29c-3.8,7.82 -6.51,14.75 -8.12,20.79 -1.62,6.03 -2.65,11.22 -3.12,15.55 -0.47,4.34 -0.5,7.82 -0.09,10.43 0.41,2.62 0.72,4.34 0.94,5.16 0.55,2.14 1.86,3.96 3.93,5.45 2.06,1.5 4.17,1.97 6.32,1.42 1.16,-0.3 2.16,-1.03 3,-2.22 0.85,-1.18 1.03,-2.67 0.56,-4.48 -0.3,-1.16 -1.18,-2.51 -2.64,-4.07 5.51,0.17 8.8,2.31 9.87,6.43 0.55,2.14 0.47,4.23 -0.24,6.25 -0.71,2.02 -1.79,3.84 -3.23,5.44 -1.44,1.6 -3.15,3.01 -5.13,4.21 -1.98,1.22 -3.96,2.07 -5.95,2.58 -3.8,0.97 -7.74,0.61 -11.79,-1.06 -4.05,-1.69 -6.8,-5.34 -8.25,-10.94 -2.94,-11.36 -1.91,-23.75 3.1,-37.14 -7.95,2.04 -15.25,4.12 -21.93,6.28 -6.68,2.14 -12.89,4.39 -18.63,6.74 5.37,16.01 11.39,35.72 18.06,59.13 6.66,23.41 14.09,50.93 22.26,82.56 2.19,-0.39 4.45,-0.88 6.77,-1.47 2.31,-0.59 4.72,-1.21 7.19,-1.84 2.16,-0.55 4.47,-1.14 6.95,-1.78 2.48,-0.64 5.03,-1.38 7.63,-2.22 3.4,6.32 6.12,13.45 8.17,21.36 -31.11,7.97 -60.15,18.48 -87.12,31.53 -1.14,-3.05 -2.24,-6.28 -3.3,-9.7 -1.05,-3.41 -2.1,-7.1 -3.12,-11.05 5.25,-2.22 10.28,-4.61 15.09,-7.15 4.81,-2.56 9.51,-5.2 14.09,-7.96 -7.88,-30.48 -15.29,-57.42 -22.22,-80.85 -6.93,-23.42 -13.47,-43.57 -19.59,-60.45 -7.78,1.99 -19.32,5.47 -34.62,10.45 8.18,7.74 13.11,14.9 14.82,21.49 2.55,9.89 2.43,17.07 -0.38,21.57 -2.81,4.5 -7.76,7.66 -14.88,9.48 -5.46,1.4 -10.6,1.13 -15.42,-0.79 -4.82,-1.93 -7.76,-4.95 -8.83,-9.07 -1.7,-6.59 0.1,-12.23 5.41,-16.93 -0.01,4.04 0.28,7.22 0.88,9.53 0.85,3.29 2.58,5.23 5.2,5.78 2.61,0.55 4.75,0.62 6.4,0.2 2.65,-0.68 4.7,-2.82 6.15,-6.44 1.45,-3.61 1.76,-6.99 0.95,-10.12 -1.28,-4.95 -4.47,-10.67 -9.59,-17.17 -5.12,-6.51 -12,-13.13 -20.62,-19.88 16.53,-6.33 33.37,-12.33 50.53,-17.94 17.16,-5.62 35.01,-10.81 53.54,-15.56 16.55,-4.24 33.55,-8.07 51.02,-11.49zm157.6 -40.63c9.92,-2.54 19.66,-2.58 29.21,-0.12 9.55,2.48 18.48,7.34 26.8,14.61 8.32,7.27 15.8,16.77 22.45,28.5 6.65,11.73 12.02,25.5 16.1,41.31 3.02,11.7 4.03,23.43 3.01,35.2 -1.02,11.76 -4.11,22.66 -9.29,32.67 -5.17,10.03 -12.38,18.82 -21.64,26.36 -9.25,7.54 -20.58,13.04 -33.98,16.47 -21.51,5.51 -40.32,1.86 -56.43,-10.97 -16.1,-12.82 -27.99,-34.06 -35.65,-63.7 -4.48,-17.31 -5.95,-32.74 -4.43,-46.29 1.52,-13.57 5.17,-25.39 10.95,-35.48 5.78,-10.08 13.29,-18.34 22.58,-24.76 9.28,-6.42 19.38,-11.02 30.3,-13.82zm3.41 17.3c-8.27,2.12 -14.8,6.39 -19.58,12.8 -4.79,6.4 -8.16,13.98 -10.13,22.74 -1.97,8.76 -2.7,18.21 -2.2,28.36 0.51,10.14 2,20 4.47,29.55 2.38,9.23 5.45,18.01 9.19,26.36 3.74,8.36 8.12,15.54 13.11,21.55 4.99,6.01 10.54,10.43 16.65,13.25 6.12,2.83 12.65,3.36 19.6,1.57 7.27,-1.86 13.29,-5.38 18.04,-10.56 4.75,-5.16 8.22,-11.55 10.4,-19.13 2.18,-7.58 3.16,-16.08 2.94,-25.51 -0.24,-9.43 -1.69,-19.32 -4.37,-29.7 -2.43,-9.39 -5.79,-18.63 -10.07,-27.72 -4.29,-9.09 -9.06,-17.13 -14.31,-24.12 -5.24,-7 -10.78,-12.36 -16.58,-16.04 -5.81,-3.7 -11.52,-4.83 -17.16,-3.39z"/>
   <path fill="#1A73E8" fill-rule="nonzero" d="M8024.73 3506.92c-41.82,95.29 -94.26,203.28 -157.36,323.88 -63.08,120.64 -130.8,239.7 -203.16,357.19 -72.34,117.49 -144.66,227.28 -216.9,329.3 -72.26,102.05 -134.91,179.81 -187.94,233.22 -69.75,74.73 -154.99,157.13 -255.71,247.14 -100.72,90.03 -205.55,169.93 -314.49,239.72 -108.94,69.79 -215.38,119.98 -319.36,150.59 -103.99,30.61 -195.8,22.9 -275.4,-23.11 -79.6,-46.03 -131.13,-123.39 -154.58,-232.09 -23.47,-108.7 -31.18,-229.31 -23.14,-361.87 8.02,-132.54 25.56,-266.22 52.59,-401.06 27.05,-134.81 54.59,-249.45 82.63,-343.87 19.84,-72.61 55.47,-164.86 106.88,-276.75 51.4,-111.89 109.96,-228.5 175.66,-349.84 65.72,-121.31 133.33,-238.23 202.77,-350.75 69.47,-112.52 135.75,-208.05 198.87,-286.64 82.15,-80.85 167.58,-152.06 256.28,-213.61 88.7,-61.59 177.78,-108.55 267.28,-140.88 89.5,-32.35 178.81,-47.11 267.88,-44.29 89.09,2.84 176.76,29.16 262.99,79.02 169.16,97.78 269.41,242.03 300.79,432.74 31.36,190.73 9.16,401.37 -66.61,631.95zm-1839.94 3171.4c-51.77,89.56 -116.28,162.88 -193.57,219.99 -77.27,57.13 -161.71,97.92 -253.28,122.43 -91.62,24.49 -185.15,31.25 -280.61,20.34 -95.45,-10.94 -187.97,-42.28 -277.53,-94.05 -89.55,-51.77 -162.88,-116.3 -220.01,-193.57 -57.09,-77.27 -97.9,-161.68 -122.4,-253.3 -24.46,-91.6 -31.28,-185.13 -20.32,-280.59 10.92,-95.47 42.27,-187.97 94.04,-277.53 51.77,-89.55 116.28,-162.9 193.57,-220.01 77.25,-57.11 161.69,-97.92 253.28,-122.4 91.6,-24.49 185.14,-31.26 280.61,-20.34 95.46,10.94 187.97,42.3 277.52,94.07 89.56,51.77 162.9,116.28 220.01,193.55 57.11,77.27 97.92,161.71 122.4,253.3 24.49,91.6 31.28,185.14 20.34,280.59 -10.92,95.45 -42.28,187.97 -94.05,277.53z"/>
   <g>
    <path fill="#1A73E8" d="M5909.65 4867.69c0,125.28 19.71,278.24 62.1,363.46 28.49,57.28 45.68,78.11 92.77,116.28 208.74,169.19 571.78,-64.07 737.92,-184.23 77.62,-56.14 120.2,-98.12 178.01,-143.02 18.21,-14.14 20.12,-14.83 36.13,-31.05 11.22,-11.38 17.88,-19.4 30.1,-29.63 127.79,-106.85 309.58,-301.57 402.53,-441.14 34.77,-52.21 68.72,-99.53 102.96,-150.88 94.19,-141.26 157.7,-255.14 243.23,-398.85 10.3,-17.31 13.57,-26.74 23.17,-44.02 10.28,-18.5 15.5,-24.31 24.87,-42.32 183.91,-353.29 261.21,-481.13 261.21,-896.02 0,-183.38 -76.27,-342.33 -169.81,-434.93 -331.85,-328.51 -726.3,-186.27 -1044.8,71.44 -155.89,126.13 -188.07,172.45 -303.99,345.56 -35.74,53.37 -63.79,100.86 -97.29,156.56l-315.33 588.06c-156.14,309.77 -263.78,819.86 -263.78,1154.76z"/>
    <path fill="#1A73E8" d="M4812.14 6263.83c0,142.49 5.87,236.99 72.11,368.39 43.21,85.73 82.32,140.36 146.25,204.65 139.83,140.64 324.42,209.05 508.46,210.9l16.61 0c226.06,-2.65 449.23,-105.62 585.49,-298.66 161.48,-228.77 191.15,-509.72 69.83,-764.13 -55.61,-116.62 -144.08,-217.83 -250.34,-287.22 -217.01,-141.71 -461.21,-167.22 -704.84,-65.45 -177.89,74.31 -277.88,189.46 -368.71,348.04 -32.6,56.9 -74.88,193.4 -74.88,283.48z"/>
   </g>
   <path fill="#1A73E8" fill-rule="nonzero" d="M5873.88 4438.91c-17.74,142.26 -55.68,276.48 -113.84,402.7 -58.15,126.21 -158.71,258.9 -301.66,398.08 -92.75,88.92 -193.44,159.6 -302.05,211.98 -108.59,52.41 -216.24,90.8 -322.92,115.18 -106.67,24.37 -211.13,37.25 -313.35,38.61 -102.25,1.39 -193.38,-4.5 -273.39,-17.61 -27.02,115.94 -54.92,226.31 -83.69,331.06 -28.78,104.77 -61.33,201.98 -97.65,291.65 -28.57,78.1 -66.33,166.81 -113.28,266.16 -46.94,99.35 -99.39,192.52 -157.34,279.49 -57.98,86.98 -121.04,158.42 -189.27,214.28 -68.21,55.86 -139.41,79.16 -213.62,69.92 -74.21,-9.26 -138.09,-51.01 -191.64,-125.19 -53.57,-74.2 -98.44,-161.45 -134.58,-261.76 -36.15,-100.29 -64.68,-205.13 -85.58,-314.52l-4.42 -23.43c83.87,-189.58 114.18,-380.85 118.8,-610.77l0.02 -140.56 -0.1 -2.09c-1.16,-25.27 -7.43,-48.85 -8.07,-73.26 -4.76,-183.33 -26.21,-369.88 -54.53,-550.99 -9.71,-62.07 -20.38,-124.56 -32.15,-187.03 30.9,-188.05 72.03,-374.23 123.45,-558.56 59.66,-213.96 132.39,-412.94 218.15,-596.96 132.92,-259.76 315.21,-443.51 546.91,-551.22 231.7,-107.69 482.04,-144.76 751.1,-111.18 200.98,25.07 381.99,84.56 542.99,178.46 161.02,93.87 296.51,209.72 406.51,347.49 110.02,137.77 190.54,291.48 241.61,461.18 51.06,169.66 65.59,342.61 43.59,518.88zm-1061.6 -61.78c10.03,-80.43 -8.44,-152.59 -55.41,-216.56 -46.99,-63.94 -110.68,-100.95 -191.07,-110.98 -80.4,-10.03 -151.22,10.19 -212.47,60.62 -61.24,50.48 -96.9,115.89 -106.95,196.29 -10.02,80.41 8.46,152.59 55.43,216.55 46.97,63.94 110.66,100.95 191.06,110.97 80.38,10.05 151.21,-10.17 212.47,-60.63 61.26,-50.46 96.9,-115.87 106.93,-196.27z"/>
   <path fill="#1A73E8" fill-rule="nonzero" d="M6122.08 3233.49c2.98,-15.61 63.75,-77.48 74.4,-88.43 37.3,-37.76 159.89,-178.66 122.74,-236.22 -46.6,-58.12 -114.77,-11.86 -147.64,37.86 -32.17,59.61 -57.92,156.46 -73.8,221.36 -4.97,23.29 -11.97,70.43 24.31,65.43z"/>
   <path fill="#1A73E8" fill-rule="nonzero" d="M5863.5 3411.65c-31.47,-20.02 -91.69,-112.72 -109.43,-144.02 -42.14,-81.36 -93.54,-214.39 -186.5,-246.81 -92.34,-5.62 -32.54,141.19 -9.49,180.97 51.14,74.63 132.57,132.38 204.34,184.7 16.94,11.97 113.5,81.27 101.08,25.16z"/>
   <path fill="#1A73E8" fill-rule="nonzero" d="M4210.95 7118.57c11.02,-6.63 79.78,-27.47 119.82,-49.88 5.25,-1.06 48.2,-26.45 55.21,-30.65 35.86,-21.78 66.25,-44.84 98.34,-71.75 50.11,-44.4 203.04,-173.21 187.84,-249.01 -45.39,-111.74 -148.04,-64.67 -214.84,1.06 -36.17,41.68 -72.07,96.62 -102.7,142.42 -29.98,45.32 -59.21,90.94 -90.37,135.5 -6.2,9.32 -18.17,22.48 -25.86,31.17 -21.61,25.33 -57.65,63.03 -27.44,91.15z"/>
   <path fill="#1A73E8" fill-rule="nonzero" d="M3066.86 3771.99c-3.37,-2.81 -47.17,-146.35 -49.7,-153.79 -19,-53.34 -41.07,-100.94 -68.02,-150.7 -24.93,-57.67 -70.15,-112.73 -112.52,-158.28 -22.03,-20.12 -43.22,-36.74 -71.76,-46.53 -16.84,-8.09 -43.37,-13.25 -61.4,-6.27 -41.89,22.12 -32.46,83.41 -22.81,122.99 2.81,24.26 10.24,41.38 22.05,62.6 2.03,7.2 16.8,28.55 21.74,35.08 26.18,32.03 57.92,65.29 85.84,95.94 55.97,62.84 111.61,127.42 170.25,187.66 25.69,24.92 58.48,45.31 86.33,11.31z"/>
   <path fill="#1A73E8" fill-rule="nonzero" d="M5942.25 3195.61c-16.74,-28.05 -6.49,-146.33 -3.57,-175.15 5.76,-46.15 12.49,-91.12 20.94,-136.86 10.29,-52.25 68.58,-247.15 60.21,-281.64 -48.78,-102.06 -141.48,31.95 -165.42,100.51 -15.26,56.73 -19.26,115.53 -20.11,174.01 0.85,93.25 11.75,171.86 40.63,260.97 7.03,19.68 42.78,101.88 67.31,58.16z"/>
   <path fill="#1A73E8" fill-rule="nonzero" d="M6468.95 6286.14c12.14,-14.78 22.56,-118.68 24.48,-136.96 6.2,-63.61 42.09,-285.59 123.96,-295.57 89.67,-1.68 99.4,97.03 78.74,165.75 -30.35,75.69 -100.11,174.15 -147.92,238.84 -17.71,22.54 -55.93,65.35 -79.26,27.93z"/>
   <path fill="#1A73E8" fill-rule="nonzero" d="M6475.17 6508.26c42.78,13.69 174.93,-2.04 217.56,-9.74 107.74,-23.7 270.42,-78.65 372.03,-17.64 76.35,81.1 -105.55,138.89 -160.11,148.22 -108.44,10.19 -224.62,-20.64 -328.32,-46.72 -24.14,-6.45 -162.64,-42.37 -101.17,-74.13z"/>
   <path fill="#1A73E8" fill-rule="nonzero" d="M6508.68 6377.12c38.85,-6.12 140.38,-106.75 164.79,-131.66 38.26,-40.89 74.67,-81.77 110.48,-124.83 40.41,-49.77 175.81,-253.88 214.16,-272.72 132.01,-33.52 79.46,155.51 34.48,230.48 -40.72,57.83 -92.04,106.84 -145.49,152.69 -86.93,71.06 -168.05,121.55 -272.73,163.5 -23.62,8.66 -127.22,38.93 -105.67,-17.46z"/>
   <path fill="#1A73E8" fill-rule="nonzero" d="M2999.87 5588.75c10.9,208.25 -10.78,396.93 -65.06,566.05 -54.31,169.12 -134.99,314.49 -242.03,436.11 -107.04,121.62 -238,218.03 -392.8,289.32 -154.8,71.26 -327.33,111.9 -517.55,121.88 -205.68,10.78 -386.88,-15.83 -543.62,-79.8 -156.73,-63.96 -290.47,-156.19 -401.19,-276.71 -110.72,-120.51 -196.33,-266.18 -256.83,-437.03 -60.52,-170.85 -96.02,-356.53 -106.54,-557.05 -10.12,-192.81 -13.33,-364.71 -9.63,-515.71 3.68,-151 12.5,-290.02 26.48,-417.07 13.96,-127.04 32.9,-245.34 56.8,-354.86 23.9,-109.53 51.09,-217.94 81.56,-325.23 44.54,-182.79 111.87,-312.63 201.93,-389.53 90.07,-76.9 200.66,-118.79 331.75,-125.66 54,-2.82 100.36,8.91 139.12,35.25 38.77,26.33 70.97,62.65 96.61,109 25.6,46.37 44.61,101.44 57,165.23 12.35,63.81 20.42,131.71 24.19,203.67 9.57,182.53 13.52,344.1 11.88,484.67 -1.68,140.59 -5.79,270.98 -12.37,391.19 -6.59,120.21 -15.48,233.48 -26.68,339.74 -11.18,106.3 -22.88,215.18 -35.09,326.66 -8.93,75.24 -7.17,146.05 5.34,212.42 12.5,66.35 33.54,123.27 63.1,170.69 29.56,47.42 67.54,84.1 114.03,110.04 46.47,25.91 99.27,37.32 158.38,34.23 66.86,-3.5 120.78,-19.89 161.78,-49.09 41,-29.22 72.44,-68.9 94.3,-119.02 21.86,-50.12 34.33,-107.49 37.38,-172.1 3.07,-64.61 0.06,-134.03 -8.98,-208.32 -11.08,-112.86 -26.54,-223.54 -46.41,-332.07 -19.87,-108.51 -40.71,-223.42 -62.54,-344.75 -21.82,-121.29 -42.33,-254.26 -61.52,-398.9 -19.18,-144.66 -33.62,-309.53 -43.31,-494.63 -8.09,-154.25 8.71,-276.28 50.42,-366.12 41.68,-89.84 122.95,-137.93 243.77,-144.25 110.56,-5.8 216.76,28.59 318.64,103.17 101.85,74.59 177.46,189.2 226.82,343.88 39.61,116.49 77.09,229.23 112.46,338.25 35.35,109 67.29,226.53 95.8,352.66 28.52,126.12 53.32,267.24 74.4,423.39 21.08,156.13 37.13,339.62 48.19,550.42z"/>
   <path fill="#1A73E8" fill-rule="nonzero" d="M2807.31 7032.01c-16.08,10.96 -122.25,12.09 -140.94,12.38 -64.99,0.51 -293.07,16.73 -310.6,98.74 -9.83,90.67 89.27,109.48 160.75,94.78 79.42,-23.88 185.46,-85.6 255.31,-128.15 24.44,-15.9 71.26,-50.72 35.48,-77.75z"/>
   <path fill="#1A73E8" fill-rule="nonzero" d="M3031.71 7058.45c9.98,44.56 -17.93,176.99 -29.59,219.47 -33.77,106.97 -104.18,266.75 -51.6,375.2 75.21,84.68 150.24,-94.31 164.64,-148.72 20.16,-108.91 -0.53,-229.37 -17.54,-336.77 -4.35,-25.03 -28.17,-168.57 -65.91,-109.19z"/>
   <path fill="#1A73E8" fill-rule="nonzero" d="M2895.85 7080.5c-9.72,38.79 -120.85,132.5 -148.29,154.96 -44.88,35.04 -89.59,68.22 -136.45,100.57 -54.07,36.42 -273.07,155.04 -295.63,192.18 -45.92,130.66 150.3,94.58 230.31,55.82 62.27,-36 116.56,-83.54 167.84,-133.51 79.85,-81.6 138.34,-159.18 190.32,-261.41 10.92,-23.14 50.96,-125.32 -8.1,-108.61z"/>
   <path fill="#1A73E8" fill-rule="nonzero" d="M4598.34 2361.34c8.67,-23.22 -22.19,-154.9 -27.51,-178.11 -19.12,-80.54 -68.35,-367.62 27.77,-414.23 109.19,-39.71 162.56,77.16 166.09,170.05 -5.41,105.5 -49.55,255.43 -80.96,354.78 -12.24,35.06 -41.1,103.56 -85.4,67.51z"/>
   <path fill="#1A73E8" fill-rule="nonzero" d="M4782.39 2648.47c54.59,-28.87 154.2,-230.04 177.77,-279.48 36.02,-80.21 69.31,-159.47 100.57,-241.68 34.69,-94.51 131.93,-466.64 179.31,-514.15 179.04,-116.99 197.2,190.56 168.55,324.84 -31.05,106.64 -82.35,205.57 -138.4,300.89 -92.96,149.81 -187.77,266.11 -321.92,381.71 -30.68,24.9 -169.17,122.59 -165.87,27.86z"/>
   <path fill="#1A73E8" fill-rule="nonzero" d="M5337.63 2549.53c24.15,-5.56 117.02,-103.89 133.45,-121.12 56.67,-60.34 269.08,-259.65 360.95,-205.13 93.31,69.21 25.21,178.17 -50.35,232.31 -91.01,53.63 -240.44,99.44 -340.65,127.98 -36,9.11 -109.06,22.79 -103.4,-34.05z"/>
   <path fill="#1A73E8" fill-rule="nonzero" d="M1528.3 3289.88c1.65,7.41 1.34,15.82 -0.85,25.23 -2.18,9.41 -6.97,19.36 -14.36,29.9 -7.35,10.57 -18.09,20.89 -32.16,30.97 -14.07,10.07 -31.71,19.8 -52.93,29.13 -14.17,6.21 -30.56,11.96 -49.19,17.21 -18.62,5.26 -37.76,9.88 -57.45,13.83 -19.72,3.94 -38.92,7.38 -57.69,10.35 -18.72,2.97 -35.38,4.89 -49.94,5.77 -24.31,2.26 -44.46,2.42 -60.4,0.49 -15.92,-1.89 -29.46,-6.12 -40.6,-12.59 -11.12,-6.49 -20.76,-15.82 -28.88,-27.99 -8.11,-12.17 -16.65,-28.13 -25.66,-47.87 -35.77,-81.36 -63.95,-164.56 -84.63,-249.64 -20.68,-85.07 -31.16,-177.61 -31.45,-277.64 0,-52.79 13.28,-93.9 39.76,-123.38 26.49,-29.51 62.82,-52.06 109.05,-67.67 25.41,-7.92 51.77,-14.12 79.13,-18.59 27.32,-4.47 58.9,-6.36 94.75,-5.74 35.11,0.82 64.6,7.1 88.54,18.92 23.93,11.8 38.16,28.05 42.74,48.79 2.61,11.83 1.79,23.1 -2.47,33.72 -4.24,10.62 -10.6,20.58 -19.02,29.81 -8.46,9.23 -18.07,17.54 -28.85,24.95 -10.78,7.42 -21.39,13.82 -31.83,19.24l-64.68 34.02c-16.05,8.2 -27.55,17.52 -34.58,27.96 -7.01,10.46 -9.5,20.33 -7.45,29.6 2.04,9.24 8.43,17.12 19.19,23.68 10.75,6.59 25.19,10.58 43.37,12.02l78.17 6.05c33.03,2.03 57.07,8.19 72.12,18.45 15.05,10.26 24.31,23.15 27.72,38.71 3.57,16.27 -1.61,31.4 -15.62,45.33 -14,13.98 -33.06,27.87 -57.15,41.68l-67.03 39.21c-15.14,8.76 -25.5,19.02 -31.07,30.69 -5.57,11.71 -7.22,22.72 -4.94,33.09 2.29,10.36 8.37,19.49 18.27,27.4 9.88,7.92 23.08,12.37 39.58,13.39l105.17 7.13c18.89,1.28 34.11,4.3 45.66,9.14 11.52,4.82 20.75,10.54 27.62,17.2 6.91,6.61 11.67,13.32 14.33,20.1 2.68,6.78 4.57,12.77 5.7,17.96zm607.12 -461.87c9.63,43.64 14.83,87.53 15.59,131.57 0.79,44.04 -3.72,86.18 -13.67,126.38 31.19,28.04 52.16,54.47 63.03,79.24 10.86,24.76 8.33,46.66 -7.65,65.7 -12.18,15.09 -29.78,22.46 -52.41,22.01 -22.6,-0.43 -49.11,-8.19 -79.75,-23.2 -16.48,16.86 -35.73,31.57 -57.77,44.18 -22.08,12.62 -47.36,22.08 -75.46,28.27 -52.54,11.56 -100.68,9.75 -144.01,-5.56 -43.49,-15.26 -81.97,-39.37 -115.61,-72.3 -33.65,-32.94 -62.1,-72.27 -84.99,-118.08 -22.85,-45.76 -39.77,-93.46 -50.69,-143.04 -10.74,-48.82 -15.21,-98.28 -13.45,-148.33 1.8,-50.05 11.29,-96.76 28.16,-140.07 16.85,-43.27 41.57,-80.71 74.35,-112.38 32.6,-31.61 74.66,-53.08 125.7,-64.32 51.96,-11.45 99.28,-9.84 142.08,4.79 42.99,14.58 80.84,37.66 113.75,69.19 33.16,31.53 60.76,69.68 83.03,114.41 22.27,44.77 38.88,91.96 49.77,141.53zm-217.81 57.27c-3.61,-16.28 -8.85,-35.67 -15.75,-58.22 -6.9,-22.53 -15.62,-43.5 -26.09,-62.93 -10.48,-19.41 -22.67,-35.16 -36.58,-47.24 -13.91,-12.04 -29.75,-16.15 -47.51,-12.22 -18.48,4.06 -31.74,14.37 -39.73,30.86 -8.02,16.51 -12.54,35.54 -13.64,57.11 -1.06,21.59 0.07,43.45 3.42,65.63 3.32,22.13 6.7,40.98 10.11,56.5 3.91,17.77 9.05,38.57 15.48,62.38 6.39,23.83 14.75,45.83 25.01,66.07 10.47,20.19 22.83,36.66 37.24,49.39 14.63,12.68 32.21,16.8 53.13,12.22 2.21,-0.51 4.21,-1.15 5.96,-1.94 1.79,-0.79 3.7,-1.8 5.75,-2.99 -17.87,-17.8 -30.2,-35.85 -36.93,-54.13 -6.76,-18.29 -3.97,-36.57 8.29,-54.77 7.52,-11.76 16.99,-18.88 28.81,-21.49 11.67,-2.57 22.81,-3.07 33.06,-1.43 -0.27,-15.49 -1.46,-30.52 -3.54,-45.25 -2.04,-14.67 -4.24,-27.18 -6.5,-37.53zm886.47 -102.09c10.6,48.12 12.87,92.78 6.84,134.09 -6.03,41.3 -19.02,78.49 -38.87,111.57 -19.88,33.08 -46.35,60.85 -79.43,83.25 -33.12,22.42 -71.84,38.52 -116.24,48.27 -47.35,10.44 -90.64,11.27 -129.84,2.43 -39.18,-8.87 -73.88,-25.47 -104.04,-49.87 -30.22,-24.36 -55.66,-55.25 -76.29,-92.58 -20.66,-37.38 -35.99,-78.97 -46.11,-124.86 -9.6,-43.69 -16.92,-82.99 -21.91,-117.97 -4.97,-34.98 -8.02,-67.29 -9.1,-96.93 -1.11,-29.64 -1.2,-57.35 -0.27,-83.13 0.9,-25.82 2.75,-51.82 5.49,-78.06 4.07,-45.1 15.25,-78.82 33.63,-101.07 18.37,-22.29 43.09,-36.86 74.16,-43.68 14.08,-3.11 26.74,-2.04 38,3.26 11.25,5.28 20.78,13.29 28.54,23.98 7.78,10.67 14.51,23.56 20.15,38.6 5.63,15.07 10.16,30.37 13.59,45.9 9.14,41.45 16.12,77.54 20.94,108.28 4.84,30.75 8.58,59.24 11.24,85.41 2.66,26.18 4.47,51.17 5.47,75.03 0.97,23.83 2.39,48.71 4.23,74.74 1.51,17.49 4.82,33.45 9.95,47.85 5.1,14.4 11.7,26.69 19.75,36.94 8.09,10.25 17.3,17.73 27.65,22.45 10.35,4.69 21.06,5.82 32.17,3.35 12.57,-2.77 22.42,-8.2 29.53,-16.38 7.13,-8.15 11.87,-18.31 14.24,-30.46 2.38,-12.16 2.65,-25.81 0.89,-40.94 -1.78,-15.13 -4.9,-31.08 -9.39,-47.97 -7.03,-24.84 -14.82,-48.75 -23.34,-71.69 -8.56,-22.93 -17.38,-47.18 -26.5,-72.71 -9.12,-25.53 -18.48,-53.96 -28.06,-85.2 -9.61,-31.24 -18.96,-67.59 -28.09,-109.06 -3.74,-17 -5.95,-33.19 -6.62,-48.58 -0.67,-15.36 0.96,-29.09 4.89,-41.23 3.91,-12.09 10.21,-22.22 18.92,-30.32 8.69,-8.14 20.82,-13.91 36.36,-17.33 26.62,-5.87 53.72,-1.76 81.26,12.37 27.53,14.1 50.2,38.6 67.96,73.46 13.3,25.05 26.02,49.38 38.24,73.08 12.19,23.69 24.04,49.39 35.6,77.1 11.53,27.75 22.46,58.89 32.77,93.47 10.34,34.59 20.89,76.3 31.63,125.13zm259.53 -438.88c34.26,81.68 60.27,165.4 77.97,251.09 17.71,85.75 26.62,169.3 26.71,250.78 -0.14,17.09 -1.26,36.54 -3.45,58.34 -2.17,21.84 -5.93,42.64 -11.27,62.42 -5.37,19.79 -12.62,37.14 -21.77,51.96 -9.13,14.82 -20.76,23.77 -34.8,26.88 -13.32,2.93 -27.51,-0.76 -42.57,-11.01 -15.06,-10.28 -29.25,-23.66 -42.58,-40.09 -13.33,-16.47 -25.75,-34.11 -37.26,-52.9 -11.55,-18.81 -20.85,-35.57 -27.96,-50.31 -17.37,-36.52 -33.24,-75.13 -47.61,-115.79 -14.38,-40.67 -26.88,-82.36 -37.42,-125.03 -10.57,-42.67 -18.46,-85.53 -23.68,-128.64 -5.23,-43.05 -7.35,-85.28 -6.36,-126.65 0.69,-17.99 2.67,-35.48 5.91,-52.47 3.26,-17.03 8.43,-32.31 15.52,-45.9 7.11,-13.59 16.15,-25.28 27.2,-35.09 11.02,-9.81 24.67,-16.48 40.96,-20.07 31.06,-6.85 58.91,-0.17 83.54,20.01 24.64,20.2 44.27,47.67 58.91,82.47zm671.94 -14.1c6.19,28.12 8.04,55.87 5.48,83.17 -2.52,27.35 -12.37,58.4 -29.52,93.21 -10.74,21.74 -24,40.8 -39.79,57.07 -15.81,16.29 -32.35,30.19 -49.59,41.76 -17.27,11.55 -34.62,20.82 -52.09,27.76 -17.49,6.94 -33.99,12.16 -49.53,15.58 2.35,21.2 4.11,41.56 5.32,61.08 1.18,19.5 1.73,37.86 1.62,54.93 -0.1,17.09 -1.45,36.59 -4.01,58.51 -2.53,21.88 -6.66,42.76 -12.4,62.65 -5.71,19.87 -13.32,37.27 -22.86,52.17 -9.51,14.93 -21.29,23.91 -35.34,26.99 -14.08,3.09 -28.63,-0.48 -43.69,-10.73 -15.06,-10.27 -29.62,-23.59 -43.7,-39.88 -14.09,-16.29 -26.87,-33.83 -38.38,-52.63 -11.51,-18.8 -20.45,-35.64 -26.84,-50.55 -13.51,-29.62 -26.4,-63.61 -38.75,-102.02 -12.33,-38.43 -22.71,-78.43 -31.07,-120.03 -8.39,-41.59 -14.18,-83.77 -17.4,-126.54 -3.21,-42.74 -2.5,-83.61 2.08,-122.66 6.22,-56.46 27.51,-102.46 63.89,-138 36.39,-35.56 80.53,-59.06 132.32,-70.45 37.74,-8.31 74.6,-9.06 110.65,-2.24 36.03,6.8 68.44,19.25 97.24,37.34 28.83,18.09 53.52,41.37 74.14,69.83 20.65,28.4 34.7,59.66 42.21,93.7zm-185.81 54.86c-4.23,-19.23 -14.33,-34.27 -30.3,-45.09 -15.96,-10.85 -33.56,-14.16 -52.79,-9.91 -19.25,4.23 -33.84,14.59 -43.76,31.14 -9.94,16.53 -12.78,34.44 -8.56,53.68 4.25,19.26 14.33,34.3 30.3,45.15 15.97,10.83 33.56,14.11 52.82,9.9 19.23,-4.25 33.81,-14.64 43.75,-31.19 9.92,-16.53 12.8,-34.41 8.54,-53.69zm844.73 273.76c1.64,7.4 1.35,15.8 -0.86,25.21 -2.17,9.39 -6.97,19.37 -14.35,29.91 -7.35,10.59 -18.1,20.87 -32.16,30.96 -14.06,10.09 -31.71,19.79 -52.93,29.12 -14.19,6.22 -30.56,11.96 -49.21,17.22 -18.61,5.27 -37.75,9.87 -57.45,13.83 -19.7,3.97 -38.91,7.4 -57.68,10.36 -18.72,2.96 -35.38,4.89 -49.94,5.78 -24.31,2.25 -44.46,2.41 -60.41,0.49 -15.93,-1.91 -29.46,-6.12 -40.58,-12.6 -11.13,-6.49 -20.78,-15.8 -28.88,-27.98 -8.12,-12.18 -16.67,-28.15 -25.66,-47.87 -35.77,-81.38 -63.96,-164.58 -84.63,-249.67 -20.68,-85.04 -31.16,-177.59 -31.45,-277.61 -0,-52.79 13.27,-93.92 39.76,-123.4 26.48,-29.51 62.82,-52.04 109.04,-67.67 25.42,-7.92 51.78,-14.12 79.13,-18.58 27.32,-4.45 58.91,-6.36 94.76,-5.73 35.11,0.81 64.61,7.1 88.54,18.9 23.92,11.79 38.16,28.06 42.74,48.79 2.61,11.82 1.79,23.09 -2.47,33.73 -4.26,10.64 -10.6,20.55 -19.04,29.78 -8.46,9.24 -18.05,17.54 -28.84,24.96 -10.79,7.41 -21.39,13.84 -31.83,19.24l-64.69 34.01c-16.04,8.2 -27.56,17.52 -34.57,27.98 -7.01,10.48 -9.51,20.32 -7.45,29.59 2.04,9.24 8.44,17.13 19.19,23.69 10.75,6.57 25.19,10.58 43.35,11.99l78.15 6.06c33.06,2.04 57.1,8.19 72.16,18.45 15.06,10.27 24.3,23.17 27.72,38.69 3.57,16.27 -1.64,31.41 -15.62,45.35 -14,13.96 -33.06,27.86 -57.16,41.68l-67.03 39.2c-15.12,8.77 -25.49,19 -31.07,30.68 -5.56,11.71 -7.22,22.73 -4.93,33.09 2.29,10.38 8.37,19.51 18.27,27.4 9.86,7.92 23.07,12.38 39.58,13.39l105.17 7.15c18.89,1.27 34.11,4.31 45.66,9.15 11.52,4.83 20.74,10.57 27.62,17.19 6.9,6.63 11.66,13.33 14.32,20.11 2.65,6.81 4.57,12.77 5.7,17.96z"/>
   <path fill="#1A73E8" fill-rule="nonzero" d="M7391.06 8155.93l-81.33 -119.19c21.37,-8.06 38.42,-20.42 51.72,-37.67 12.93,-16.68 19.49,-38.6 19.49,-65.77l0 -0.75c0,-34.86 -10.68,-61.66 -32.79,-80.96 -22.3,-19.49 -53.22,-29.23 -92.76,-29.23l-152.36 0 0 333.57 73.46 0 0 -106.82 57.35 0 71.58 106.82 85.64 0zm-144.11 -513.85c95.95,0 182.71,38.79 245.49,101.76 62.97,62.59 101.57,149.35 101.57,245.3 0,95.95 -38.6,182.53 -101.57,245.49 -62.78,62.78 -149.54,101.75 -245.49,101.75 -95.95,0 -182.34,-38.98 -245.12,-101.75 -62.96,-62.97 -101.75,-149.55 -101.75,-245.49 0,-95.95 38.79,-182.71 101.75,-245.3 62.78,-62.97 149.17,-101.76 245.12,-101.76zm200.33 146.73c-51.16,-51.35 -121.99,-83.02 -200.33,-83.02 -78.14,0 -148.98,31.67 -200.33,83.02 -51.16,51.16 -82.83,121.99 -82.83,200.33 0,78.15 31.67,148.98 82.83,200.33 51.35,51.16 122.19,83.02 200.33,83.02 78.33,0 149.17,-31.86 200.33,-83.02 51.35,-51.35 83.02,-122.18 83.02,-200.33 0,-78.33 -31.67,-149.17 -83.02,-200.33zm-140.55 148.42c0,14.24 -4.68,25.68 -14.24,34.48 -10.12,8.43 -23.8,12.55 -41.79,12.55l-74.21 0 0 -95.57 72.9 0c17.99,0 32.23,3.94 42.35,11.8 9.75,8.06 14.99,19.87 14.99,35.98l0 0.75z"/>
  </g>
 </g>
</svg>
